<svg width="1996" height="898" xmlns="http://www.w3.org/2000/svg" xmlns:xlink="http://www.w3.org/1999/xlink" xml:space="preserve" overflow="hidden"><defs><clipPath id="clip0"><rect x="2485" y="162" width="1996" height="898"/></clipPath></defs><g clip-path="url(#clip0)" transform="translate(-2485 -162)"><rect x="2485" y="162" width="1524" height="887" fill="#FFFFFF"/><g><path d="M3726.12 253.008 3298.11 253.008 3298.11 321.011 3726.12 321.011ZM3679.12 499.016 3298.11 499.016 3298.11 567.019 3679.12 567.019ZM3467.11 744.024 3298.11 744.024 3298.11 812.027 3467.11 812.027Z" fill="#84C157"/></g><g><path d="M3734.12 321.011 3298.11 321.011 3298.11 389.013 3734.12 389.013ZM3690.12 567.019 3298.11 567.019 3298.11 635.021 3690.12 635.021ZM3580.12 812.027 3298.11 812.027 3298.11 880.029 3580.12 880.029Z" fill="#DAECCC"/></g><g><path d="M3298.5 198.5 3298.5 935.5" stroke="#D9D9D9" stroke-width="3.4375" stroke-linejoin="round" stroke-miterlimit="10" fill="none" fill-rule="evenodd"/></g><g><text font-family="Varela Round,Varela Round_MSFontService,sans-serif" font-weight="700" font-size="32" transform="matrix(1 0 0 1 3823.22 278)">85.8%</text></g><g><text font-family="Varela Round,Varela Round_MSFontService,sans-serif" font-weight="400" font-size="32" transform="matrix(1 0 0 1 3753.67 317)">(2,303,255 HA)</text></g><g><text font-family="Varela Round,Varela Round_MSFontService,sans-serif" font-weight="700" font-size="32" transform="matrix(1 0 0 1 3776.26 523)">76.4%</text></g><g><text font-family="Varela Round,Varela Round_MSFontService,sans-serif" font-weight="400" font-size="32" transform="matrix(1 0 0 1 3706.71 562)">(9,256,554 HA)</text></g><g><text font-family="Varela Round,Varela Round_MSFontService,sans-serif" font-weight="700" font-size="32" transform="matrix(1 0 0 1 3644.79 757)">33.9%</text></g><g><g><text font-family="Varela Round,Varela Round_MSFontService,sans-serif" font-weight="400" font-size="32" transform="matrix(1 0 0 1 3496.48 796)">(11,496 Sistema de riego)</text></g></g><g><text font-family="Varela Round,Varela Round_MSFontService,sans-serif" font-weight="700" font-size="32" transform="matrix(1 0 0 1 3830.89 354)">87.4%</text></g><g><text font-family="Varela Round,Varela Round_MSFontService,sans-serif" font-weight="400" font-size="32" transform="matrix(1 0 0 1 3761.34 393)">(2,344,542 HA)</text></g><g><text font-family="Varela Round,Varela Round_MSFontService,sans-serif" font-weight="700" font-size="32" transform="matrix(1 0 0 1 3794.35 596)">78.6%</text></g><g><g><text font-family="Varela Round,Varela Round_MSFontService,sans-serif" font-weight="400" font-size="32" transform="matrix(1 0 0 1 3724.78 635)">(9,251,956 HA)</text></g></g><g><text font-family="Varela Round,Varela Round_MSFontService,sans-serif" font-weight="700" font-size="32" transform="matrix(1 0 0 1 3739.7 839)">56.6%</text></g><g><g><text font-family="Varela Round,Varela Round_MSFontService,sans-serif" font-weight="400" font-size="32" transform="matrix(1 0 0 1 3591.38 878)">(19,204 Sistema de riego)</text></g></g><g><text font-family="Varela Round,Varela Round_MSFontService,sans-serif" font-weight="400" font-size="32" transform="matrix(1 0 0 1 2632.71 310)">Porcentaje de superficie agrícola sin riego</text></g><g><text font-family="Varela Round,Varela Round_MSFontService,sans-serif" font-weight="400" font-size="32" transform="matrix(1 0 0 1 2865.75 349)">tecnificado</text></g><g><text font-family="Varela Round,Varela Round_MSFontService,sans-serif" font-weight="400" font-size="32" transform="matrix(1 0 0 1 2632.71 575)">Porcentaje de superficie agrícola sin riego</text></g><g><text font-family="Varela Round,Varela Round_MSFontService,sans-serif" font-weight="400" font-size="32" transform="matrix(1 0 0 1 2555.42 801)">Porcentaje de sistemas de riego que operan en</text></g><g><text font-family="Varela Round,Varela Round_MSFontService,sans-serif" font-weight="400" font-size="32" transform="matrix(1 0 0 1 2720.83 840)">condiciones inadecuadas</text></g><g><rect x="2812" y="979" width="20.0002" height="19.9999" fill="#84C157"/></g><g><text fill="#595959" font-family="Varela Round,Varela Round_MSFontService,sans-serif" font-weight="400" font-size="37" transform="matrix(1 0 0 1 2840.26 999)">Brecha Programada % 2023</text></g><g><rect x="3498" y="979" width="20" height="19.9999" fill="#DAECCC"/></g><g><text fill="#595959" font-family="Varela Round,Varela Round_MSFontService,sans-serif" font-weight="400" font-size="37" transform="matrix(1 0 0 1 3525.86 999)">Brecha % 2023</text></g><g><path d="M4422.15 287.009 4431.15 287.009 4431.15 343.011 4422.15 343.011ZM4418.14 533.018 4431.15 533.018 4431.15 589.019 4418.14 589.019ZM4295.14 780.026 4431.15 780.026 4431.15 835.027 4295.14 835.027Z" fill="#767171"/></g><g><path d="M4431.5 191.5 4431.5 930.5" stroke="#D9D9D9" stroke-width="3.4375" stroke-linejoin="round" stroke-miterlimit="10" fill="none" fill-rule="evenodd"/></g><g><text fill="#404040" font-family="Varela Round,Varela Round_MSFontService,sans-serif" font-weight="700" font-size="32" transform="matrix(1 0 0 1 4288.74 324)">-</text></g><g><text fill="#404040" font-family="Varela Round,Varela Round_MSFontService,sans-serif" font-weight="700" font-size="32" transform="matrix(1 0 0 1 4301.87 324)">1.5%</text></g><g><text fill="#404040" font-family="Varela Round,Varela Round_MSFontService,sans-serif" font-weight="700" font-size="32" transform="matrix(1 0 0 1 4285.09 571)">-</text></g><g><text fill="#404040" font-family="Varela Round,Varela Round_MSFontService,sans-serif" font-weight="700" font-size="32" transform="matrix(1 0 0 1 4298.22 571)">2.2%</text></g><g><text fill="#404040" font-family="Varela Round,Varela Round_MSFontService,sans-serif" font-weight="700" font-size="32" transform="matrix(1 0 0 1 4128.83 817)">-</text></g><g><text fill="#404040" font-family="Varela Round,Varela Round_MSFontService,sans-serif" font-weight="700" font-size="32" transform="matrix(1 0 0 1 4141.96 817)">22.7%</text></g><g><rect x="4257" y="965" width="20" height="19.9999" fill="#767171"/></g><g><text fill="#595959" font-family="Calibri,Calibri_MSFontService,sans-serif" font-weight="400" font-size="37" transform="matrix(1 0 0 1 4285.1 985)">Dif</text></g></g></svg>