<svg width="1967" height="1630" xmlns="http://www.w3.org/2000/svg" xmlns:xlink="http://www.w3.org/1999/xlink" xml:space="preserve" overflow="hidden"><defs><clipPath id="clip0"><rect x="2513" y="2018" width="1967" height="1630"/></clipPath></defs><g clip-path="url(#clip0)" transform="translate(-2513 -2018)"><g><path d="M3576.12 2141.07 3222 2141.07 3222 2206.07 3576.12 2206.07ZM3563.12 2374.08 3222 2374.08 3222 2439.08 3563.12 2439.08ZM3590.12 2607.09 3222 2607.09 3222 2672.09 3590.12 2672.09ZM3279.11 2840.09 3222 2840.09 3222 2905.1 3279.11 2905.1ZM3265.11 3073.1 3222 3073.1 3222 3138.1 3265.11 3138.1ZM3233.11 3307.11 3222 3307.11 3222 3371.11 3233.11 3371.11Z" fill="#9398EC"/></g><g><path d="M3603.12 2206.07 3222 2206.07 3222 2271.07 3603.12 2271.07ZM3602.12 2439.08 3222 2439.08 3222 2504.08 3602.12 2504.08ZM3597.12 2672.09 3222 2672.09 3222 2737.09 3597.12 2737.09ZM3280.11 2905.1 3222 2905.1 3222 2970.1 3280.11 2970.1ZM3267.11 3138.1 3222 3138.1 3222 3203.1 3267.11 3203.1ZM3235.11 3371.11 3222 3371.11 3222 3436.11 3235.11 3436.11Z" fill="#CED0F6"/></g><g><path d="M3221.5 2089.5 3221.5 3487.5" stroke="#D9D9D9" stroke-width="3.4375" stroke-linejoin="round" stroke-miterlimit="10" fill="none" fill-rule="evenodd"/></g><g><text font-family="Varela Round,Varela Round_MSFontService,sans-serif" font-weight="700" font-size="32" transform="matrix(1 0 0 1 3735.55 2145)">91.1%</text></g><g><text font-family="Varela Round,Varela Round_MSFontService,sans-serif" font-weight="400" font-size="32" transform="matrix(1 0 0 1 3691.43 2184)">(27,155 UP)</text></g><g><text font-family="Varela Round,Varela Round_MSFontService,sans-serif" font-weight="700" font-size="32" transform="matrix(1 0 0 1 3726.29 2383)">87.7%</text></g><g><g><text font-family="Varela Round,Varela Round_MSFontService,sans-serif" font-weight="400" font-size="32" transform="matrix(1 0 0 1 3692.24 2422)">(8,727 UP)</text></g></g><g><text font-family="Varela Round,Varela Round_MSFontService,sans-serif" font-weight="700" font-size="32" transform="matrix(1 0 0 1 3746.57 2617)">94.6%</text></g><g><g><text font-family="Varela Round,Varela Round_MSFontService,sans-serif" font-weight="400" font-size="32" transform="matrix(1 0 0 1 3702.45 2656)">(23,496 UP)</text></g></g><g><g><text font-family="Varela Round,Varela Round_MSFontService,sans-serif" font-weight="700" font-size="32" transform="matrix(1 0 0 1 3442.2 2850)">14.8%</text></g></g><g><g><text font-family="Varela Round,Varela Round_MSFontService,sans-serif" font-weight="400" font-size="32" transform="matrix(1 0 0 1 3341.02 2889)">(479,607 Personas)</text></g></g><g><text font-family="Varela Round,Varela Round_MSFontService,sans-serif" font-weight="700" font-size="32" transform="matrix(1 0 0 1 3419.31 3083)">11.2%</text></g><g><g><text font-family="Varela Round,Varela Round_MSFontService,sans-serif" font-weight="400" font-size="32" transform="matrix(1 0 0 1 3318.13 3122)">(214,247 Personas)</text></g></g><g><text font-family="Varela Round,Varela Round_MSFontService,sans-serif" font-weight="700" font-size="32" transform="matrix(1 0 0 1 3401.75 3313)">3.0%</text></g><g><g><text font-family="Varela Round,Varela Round_MSFontService,sans-serif" font-weight="400" font-size="32" transform="matrix(1 0 0 1 3290.46 3352)">(116,333 Personas)</text></g></g><g><text font-family="Varela Round,Varela Round_MSFontService,sans-serif" font-weight="700" font-size="32" transform="matrix(1 0 0 1 3754.57 2229)">98.1%</text></g><g><text font-family="Varela Round,Varela Round_MSFontService,sans-serif" font-weight="400" font-size="32" transform="matrix(1 0 0 1 3710.45 2268)">(29,258 UP)</text></g><g><text font-family="Varela Round,Varela Round_MSFontService,sans-serif" font-weight="700" font-size="32" transform="matrix(1 0 0 1 3748.93 2462)">97.9%</text></g><g><g><text font-family="Varela Round,Varela Round_MSFontService,sans-serif" font-weight="400" font-size="32" transform="matrix(1 0 0 1 3714.88 2501)">(9,736 UP)</text></g></g><g><text font-family="Varela Round,Varela Round_MSFontService,sans-serif" font-weight="700" font-size="32" transform="matrix(1 0 0 1 3746.1 2695)">96.5%</text></g><g><g><text font-family="Varela Round,Varela Round_MSFontService,sans-serif" font-weight="400" font-size="32" transform="matrix(1 0 0 1 3701.99 2734)">(23,983 UP)</text></g></g><g><text font-family="Varela Round,Varela Round_MSFontService,sans-serif" font-weight="700" font-size="32" transform="matrix(1 0 0 1 3443.84 2937)">15.2%</text></g><g><g><text font-family="Varela Round,Varela Round_MSFontService,sans-serif" font-weight="400" font-size="32" transform="matrix(1 0 0 1 3342.64 2976)">(491,262 Personas)</text></g></g><g><text font-family="Varela Round,Varela Round_MSFontService,sans-serif" font-weight="700" font-size="32" transform="matrix(1 0 0 1 3423.01 3168)">11.6%</text></g><g><g><text font-family="Varela Round,Varela Round_MSFontService,sans-serif" font-weight="400" font-size="32" transform="matrix(1 0 0 1 3321.83 3207)">(221,542 Personas)</text></g></g><g><text font-family="Varela Round,Varela Round_MSFontService,sans-serif" font-weight="700" font-size="32" transform="matrix(1 0 0 1 3398.86 3404)">3.4%</text></g><g><g><text font-family="Varela Round,Varela Round_MSFontService,sans-serif" font-weight="400" font-size="32" transform="matrix(1 0 0 1 3287.58 3443)">(131,843 Personas)</text></g></g><g><text font-family="Varela Round,Varela Round_MSFontService,sans-serif" font-weight="400" font-size="32" transform="matrix(1 0 0 1 2539.78 2175)">Porcentaje de unidades productoras con el</text></g><g><text font-family="Varela Round,Varela Round_MSFontService,sans-serif" font-weight="400" font-size="32" transform="matrix(1 0 0 1 2602.69 2214)">servicio de educación primaria con</text></g><g><text font-family="Varela Round,Varela Round_MSFontService,sans-serif" font-weight="400" font-size="32" transform="matrix(1 0 0 1 2622.04 2253)">capacidad instalada inadecuada</text></g><g><text font-family="Varela Round,Varela Round_MSFontService,sans-serif" font-weight="400" font-size="32" transform="matrix(1 0 0 1 2539.78 2409)">Porcentaje de unidades productoras con el</text></g><g><text font-family="Varela Round,Varela Round_MSFontService,sans-serif" font-weight="400" font-size="32" transform="matrix(1 0 0 1 2582.68 2447)">servicio de educación secundaria con</text></g><g><text font-family="Varela Round,Varela Round_MSFontService,sans-serif" font-weight="400" font-size="32" transform="matrix(1 0 0 1 2622.04 2486)">capacidad instalada inadecuada</text></g><g><text font-family="Varela Round,Varela Round_MSFontService,sans-serif" font-weight="400" font-size="32" transform="matrix(1 0 0 1 2539.78 2642)">Porcentaje de unidades productoras con el</text></g><g><text font-family="Varela Round,Varela Round_MSFontService,sans-serif" font-weight="400" font-size="32" transform="matrix(1 0 0 1 2539.84 2680)">servicio de educación inicial con capacidad</text></g><g><text font-family="Varela Round,Varela Round_MSFontService,sans-serif" font-weight="400" font-size="32" transform="matrix(1 0 0 1 2704.71 2719)">instalada inadecuada</text></g><g><text font-family="Varela Round,Varela Round_MSFontService,sans-serif" font-weight="400" font-size="32" transform="matrix(1 0 0 1 2535.93 2875)">Porcentaje de personas no matriculadas en</text></g><g><text font-family="Varela Round,Varela Round_MSFontService,sans-serif" font-weight="400" font-size="32" transform="matrix(1 0 0 1 2547.16 2913)">el nivel secundaria respecto a la demanda</text></g><g><text font-family="Varela Round,Varela Round_MSFontService,sans-serif" font-weight="400" font-size="32" transform="matrix(1 0 0 1 2793.78 2952)">potencial</text></g><g><text font-family="Varela Round,Varela Round_MSFontService,sans-serif" font-weight="400" font-size="32" transform="matrix(1 0 0 1 2535.93 3108)">Porcentaje de personas no matriculadas en</text></g><g><text font-family="Varela Round,Varela Round_MSFontService,sans-serif" font-weight="400" font-size="32" transform="matrix(1 0 0 1 2586.99 3146)">el nivel inicial respecto a la demanda</text></g><g><text font-family="Varela Round,Varela Round_MSFontService,sans-serif" font-weight="400" font-size="32" transform="matrix(1 0 0 1 2793.78 3185)">potencial</text></g><g><text font-family="Varela Round,Varela Round_MSFontService,sans-serif" font-weight="400" font-size="32" transform="matrix(1 0 0 1 2535.93 3341)">Porcentaje de personas no matriculadas en</text></g><g><text font-family="Varela Round,Varela Round_MSFontService,sans-serif" font-weight="400" font-size="32" transform="matrix(1 0 0 1 2567.16 3379)">el nivel primaria respecto a la demanda</text></g><g><text font-family="Varela Round,Varela Round_MSFontService,sans-serif" font-weight="400" font-size="32" transform="matrix(1 0 0 1 2793.78 3418)">potencial</text></g><g><rect x="2823" y="3574" width="20.0002" height="20" fill="#9398EC"/></g><g><text fill="#595959" font-family="Varela Round,Varela Round_MSFontService,sans-serif" font-weight="400" font-size="37" transform="matrix(1 0 0 1 2851.09 3594)">Brecha Programada % 2023</text></g><g><rect x="3408" y="3574" width="20" height="20" fill="#CED0F6"/></g><g><text fill="#595959" font-family="Varela Round,Varela Round_MSFontService,sans-serif" font-weight="400" font-size="37" transform="matrix(1 0 0 1 3436.44 3594)">Brecha % 2023</text></g><g><path d="M4375.14 2170.07 4453.15 2170.07 4453.15 2224.07 4375.14 2224.07ZM4341.14 2409.08 4453.15 2409.08 4453.15 2463.08 4341.14 2463.08ZM4431.15 2648.09 4453.15 2648.09 4453.15 2702.09 4431.15 2702.09ZM4449.15 2887.09 4453.15 2887.09 4453.15 2941.1 4449.15 2941.1ZM4449.15 3126.1 4453.15 3126.1 4453.15 3180.1 4449.15 3180.1ZM4449.15 3365.11 4453.15 3365.11 4453.15 3419.11 4449.15 3419.11Z" fill="#767171"/></g><g><path d="M4453.5 2077.5 4453.5 3511.5" stroke="#D9D9D9" stroke-width="3.4375" stroke-linejoin="round" stroke-miterlimit="10" fill="none" fill-rule="evenodd"/></g><g><text fill="#404040" font-family="Varela Round,Varela Round_MSFontService,sans-serif" font-weight="700" font-size="32" transform="matrix(1 0 0 1 4243.72 2207)">-</text></g><g><text fill="#404040" font-family="Varela Round,Varela Round_MSFontService,sans-serif" font-weight="700" font-size="32" transform="matrix(1 0 0 1 4256.85 2207)">7.1%</text></g><g><text fill="#404040" font-family="Varela Round,Varela Round_MSFontService,sans-serif" font-weight="700" font-size="32" transform="matrix(1 0 0 1 4209.65 2446)">-</text></g><g><text fill="#404040" font-family="Varela Round,Varela Round_MSFontService,sans-serif" font-weight="700" font-size="32" transform="matrix(1 0 0 1 4222.78 2446)">10.1%</text></g><g><text fill="#404040" font-family="Varela Round,Varela Round_MSFontService,sans-serif" font-weight="700" font-size="32" transform="matrix(1 0 0 1 4306 2685)">-</text></g><g><text fill="#404040" font-family="Varela Round,Varela Round_MSFontService,sans-serif" font-weight="700" font-size="32" transform="matrix(1 0 0 1 4319.13 2685)">2.0%</text></g><g><text fill="#404040" font-family="Varela Round,Varela Round_MSFontService,sans-serif" font-weight="700" font-size="32" transform="matrix(1 0 0 1 4319.95 2924)">-</text></g><g><text fill="#404040" font-family="Varela Round,Varela Round_MSFontService,sans-serif" font-weight="700" font-size="32" transform="matrix(1 0 0 1 4333.08 2924)">0.4%</text></g><g><text fill="#404040" font-family="Varela Round,Varela Round_MSFontService,sans-serif" font-weight="700" font-size="32" transform="matrix(1 0 0 1 4319.45 3163)">-</text></g><g><text fill="#404040" font-family="Varela Round,Varela Round_MSFontService,sans-serif" font-weight="700" font-size="32" transform="matrix(1 0 0 1 4332.58 3163)">0.4%</text></g><g><text fill="#404040" font-family="Varela Round,Varela Round_MSFontService,sans-serif" font-weight="700" font-size="32" transform="matrix(1 0 0 1 4319.13 3402)">-</text></g><g><text fill="#404040" font-family="Varela Round,Varela Round_MSFontService,sans-serif" font-weight="700" font-size="32" transform="matrix(1 0 0 1 4332.26 3402)">0.4%</text></g><g><rect x="4333" y="3574" width="21" height="20" fill="#767171"/></g><g><text fill="#595959" font-family="Calibri,Calibri_MSFontService,sans-serif" font-weight="400" font-size="37" transform="matrix(1 0 0 1 4361.91 3595)">Dif</text></g></g></svg>