<svg width="1975" height="809" xmlns="http://www.w3.org/2000/svg" xmlns:xlink="http://www.w3.org/1999/xlink" xml:space="preserve" overflow="hidden"><defs><clipPath id="clip0"><rect x="2494" y="3849" width="1975" height="809"/></clipPath></defs><g clip-path="url(#clip0)" transform="translate(-2494 -3849)"><g><path d="M3779.12 3955.13 3368 3955.13 3368 4014.13 3779.12 4014.13ZM3442.11 4166.14 3368 4166.14 3368 4225.14 3442.11 4225.14ZM3427.11 4377.14 3368 4377.14 3368 4436.15 3427.11 4436.15Z" fill="#F5BB47"/></g><g><path d="M3780.12 4014.13 3368 4014.13 3368 4073.13 3780.12 4073.13ZM3450.11 4225.14 3368 4225.14 3368 4284.14 3450.11 4284.14ZM3427.11 4436.15 3368 4436.15 3368 4495.15 3427.11 4495.15Z" fill="#FADFA8"/></g><g><path d="M3367.5 3908.5 3367.5 4541.5" stroke="#D9D9D9" stroke-width="3.4375" stroke-linejoin="round" stroke-miterlimit="10" fill="none" fill-rule="evenodd"/></g><g><text font-family="Varela Round,Varela Round_MSFontService,sans-serif" font-weight="700" font-size="32" transform="matrix(1 0 0 1 3867.61 3925)">75.6%</text></g><g><text font-family="Varela Round,Varela Round_MSFontService,sans-serif" font-weight="400" font-size="32" transform="matrix(1 0 0 1 3845.54 3964)">(154,344 </text></g><g><g><text font-family="Varela Round,Varela Round_MSFontService,sans-serif" font-weight="400" font-size="32" transform="matrix(1 0 0 1 3818.25 4003)">Deficiencias)</text></g></g><g><g><text font-family="Varela Round,Varela Round_MSFontService,sans-serif" font-weight="700" font-size="32" transform="matrix(1 0 0 1 3573.9 4180)">13.7%</text></g></g><g><g><text font-family="Varela Round,Varela Round_MSFontService,sans-serif" font-weight="400" font-size="32" transform="matrix(1 0 0 1 3487.12 4219)">(211,27 Vivienda)</text></g></g><g><text font-family="Varela Round,Varela Round_MSFontService,sans-serif" font-weight="700" font-size="32" transform="matrix(1 0 0 1 3542.74 4373)">10.87%</text></g><g><g><text font-family="Varela Round,Varela Round_MSFontService,sans-serif" font-weight="400" font-size="32" transform="matrix(1 0 0 1 3455.98 4412)">(540,366 Vivienda)</text></g></g><g><text font-family="Varela Round,Varela Round_MSFontService,sans-serif" font-weight="700" font-size="32" transform="matrix(1 0 0 1 3856.75 4058)">75.7%</text></g><g><text font-family="Varela Round,Varela Round_MSFontService,sans-serif" font-weight="400" font-size="32" transform="matrix(1 0 0 1 3834.68 4097)">(154,514 </text></g><g><text font-family="Varela Round,Varela Round_MSFontService,sans-serif" font-weight="400" font-size="32" transform="matrix(1 0 0 1 3807.37 4136)">Deficiencias)</text></g><g><text font-family="Varela Round,Varela Round_MSFontService,sans-serif" font-weight="700" font-size="32" transform="matrix(1 0 0 1 3582.41 4258)">15.2%</text></g><g><g><text font-family="Varela Round,Varela Round_MSFontService,sans-serif" font-weight="400" font-size="32" transform="matrix(1 0 0 1 3485.54 4297)">(234,577 Vivienda)</text></g></g><g><text font-family="Varela Round,Varela Round_MSFontService,sans-serif" font-weight="700" font-size="32" transform="matrix(1 0 0 1 3552.5 4483)">10.92%</text></g><g><text font-family="Varela Round,Varela Round_MSFontService,sans-serif" font-weight="400" font-size="32" transform="matrix(1 0 0 1 3668.16 4483)">…</text></g><g><text font-family="Varela Round,Varela Round_MSFontService,sans-serif" font-weight="400" font-size="32" transform="matrix(1 0 0 1 2713.49 4003)">Porcentaje del servicio de distribución de</text></g><g><text font-family="Varela Round,Varela Round_MSFontService,sans-serif" font-weight="400" font-size="32" transform="matrix(1 0 0 1 2773.77 4041)">energía eléctrica con deficiencias</text></g><g><text font-family="Varela Round,Varela Round_MSFontService,sans-serif" font-weight="400" font-size="32" transform="matrix(1 0 0 1 2636.33 4214)">Porcentaje de viviendas en el ámbito rural que</text></g><g><text font-family="Varela Round,Varela Round_MSFontService,sans-serif" font-weight="400" font-size="32" transform="matrix(1 0 0 1 2738.13 4252)">no cuentan con servicio eléctrico</text></g><g><text font-family="Varela Round,Varela Round_MSFontService,sans-serif" font-weight="400" font-size="32" transform="matrix(1 0 0 1 2612.32 4425)">Porcentaje de viviendas en el ámbito urbano sin</text></g><g><text font-family="Varela Round,Varela Round_MSFontService,sans-serif" font-weight="400" font-size="32" transform="matrix(1 0 0 1 2690.33 4464)">acceso al servicio de energía eléctrica</text></g><g><rect x="2845" y="4585" width="20.0002" height="19" fill="#F5BB47"/></g><g><text fill="#595959" font-family="Varela Round,Varela Round_MSFontService,sans-serif" font-weight="400" font-size="37" transform="matrix(1 0 0 1 2873.28 4605)">Brecha Programada % 2023</text></g><g><rect x="3431" y="4585" width="19" height="19" fill="#FADFA8"/></g><g><text fill="#595959" font-family="Varela Round,Varela Round_MSFontService,sans-serif" font-weight="400" font-size="37" transform="matrix(1 0 0 1 3458.63 4605)">Brecha % 2023</text></g><g><path d="M4448.15 3975.13 4450.15 3975.13 4450.15 4025.13 4448.15 4025.13ZM4421.15 4195.14 4450.15 4195.14 4450.15 4245.14 4421.15 4245.14ZM4449.15 4415.14 4450.15 4415.14 4450.15 4465.15 4449.15 4465.15Z" fill="#767171"/></g><g><path d="M4450.5 3889.5 4450.5 4550.5" stroke="#D9D9D9" stroke-width="3.4375" stroke-linejoin="round" stroke-miterlimit="10" fill="none" fill-rule="evenodd"/></g><g><text fill="#404040" font-family="Varela Round,Varela Round_MSFontService,sans-serif" font-weight="700" font-size="32" transform="matrix(1 0 0 1 4311.3 4010)">-</text></g><g><text fill="#404040" font-family="Varela Round,Varela Round_MSFontService,sans-serif" font-weight="700" font-size="32" transform="matrix(1 0 0 1 4324.43 4010)">0.1%</text></g><g><text fill="#404040" font-family="Varela Round,Varela Round_MSFontService,sans-serif" font-weight="700" font-size="32" transform="matrix(1 0 0 1 4301.52 4230)">-</text></g><g><text fill="#404040" font-family="Varela Round,Varela Round_MSFontService,sans-serif" font-weight="700" font-size="32" transform="matrix(1 0 0 1 4314.65 4230)">1.5%</text></g><g><text fill="#404040" font-family="Varela Round,Varela Round_MSFontService,sans-serif" font-weight="700" font-size="32" transform="matrix(1 0 0 1 4312.69 4450)">-</text></g><g><text fill="#404040" font-family="Varela Round,Varela Round_MSFontService,sans-serif" font-weight="700" font-size="32" transform="matrix(1 0 0 1 4325.82 4450)">0.05%</text></g><g><rect x="4351" y="4589" width="20.0005" height="20" fill="#767171"/></g><g><text fill="#595959" font-family="Calibri,Calibri_MSFontService,sans-serif" font-weight="400" font-size="37" transform="matrix(1 0 0 1 4379.21 4609)">Dif</text></g></g></svg>