<svg width="1947" height="778" xmlns="http://www.w3.org/2000/svg" xmlns:xlink="http://www.w3.org/1999/xlink" xml:space="preserve" overflow="hidden"><defs><clipPath id="clip0"><rect x="2520" y="5713" width="1947" height="778"/></clipPath><clipPath id="clip1"><rect x="3142" y="5781" width="729" height="600"/></clipPath><clipPath id="clip2"><rect x="3142" y="5781" width="729" height="600"/></clipPath></defs><g clip-path="url(#clip0)" transform="translate(-2520 -5713)"><g clip-path="url(#clip1)"><path d="M3612.12 5847.19 3142 5847.19 3142 5930.19 3612.12 5930.19ZM3305.11 6146.2 3142 6146.2 3142 6229.2 3305.11 6229.2Z" fill="#008DB8"/></g><g clip-path="url(#clip2)"><path d="M3733.12 5930.19 3142 5930.19 3142 6013.2 3733.12 6013.2ZM3305.11 6229.2 3142 6229.2 3142 6312.21 3305.11 6312.21Z" fill="#0DC5FF"/></g><g><path d="M3142.5 5781.5 3142.5 6378.5" stroke="#D9D9D9" stroke-width="3.4375" stroke-linejoin="round" stroke-miterlimit="10" fill="none" fill-rule="evenodd"/></g><g><text font-family="Varela Round,Varela Round_MSFontService,sans-serif" font-weight="700" font-size="32" transform="matrix(1 0 0 1 3779.28 5871)">25.9%</text></g><g><g><text font-family="Varela Round,Varela Round_MSFontService,sans-serif" font-weight="400" font-size="32" transform="matrix(1 0 0 1 3653.35 5910)">(341 Comisaría Básica)</text></g></g><g><text font-family="Varela Round,Varela Round_MSFontService,sans-serif" font-weight="700" font-size="32" transform="matrix(1 0 0 1 3500.65 6178)">9.0%</text></g><g><g><text font-family="Varela Round,Varela Round_MSFontService,sans-serif" font-weight="400" font-size="32" transform="matrix(1 0 0 1 3364.62 6217)">(130 Comisaría Básica)</text></g></g><g><text font-family="Varela Round,Varela Round_MSFontService,sans-serif" font-weight="700" font-size="32" transform="matrix(1 0 0 1 3887.54 5962)">32.5%</text></g><g><g><text font-family="Varela Round,Varela Round_MSFontService,sans-serif" font-weight="400" font-size="32" transform="matrix(1 0 0 1 3761.61 6001)">(429 Comisaría Básica)</text></g></g><g><text font-family="Varela Round,Varela Round_MSFontService,sans-serif" font-weight="700" font-size="32" transform="matrix(1 0 0 1 3494.04 6257)">9.0%</text></g><g><g><text font-family="Varela Round,Varela Round_MSFontService,sans-serif" font-weight="400" font-size="32" transform="matrix(1 0 0 1 3358.01 6296)">(130 Comisaría Básica)</text></g></g><g><text font-family="Varela Round,Varela Round_MSFontService,sans-serif" font-weight="400" font-size="32" transform="matrix(1 0 0 1 2545.43 5919)">Porcentaje de comisarías básicas que</text></g><g><text font-family="Varela Round,Varela Round_MSFontService,sans-serif" font-weight="400" font-size="32" transform="matrix(1 0 0 1 2556.91 5958)">operan en condiciones inadecuadas</text></g><g><text font-family="Varela Round,Varela Round_MSFontService,sans-serif" font-weight="400" font-size="32" transform="matrix(1 0 0 1 2551.34 6218)">Porcentaje de comisarías básicas por</text></g><g><text font-family="Varela Round,Varela Round_MSFontService,sans-serif" font-weight="400" font-size="32" transform="matrix(1 0 0 1 2735.52 6256)">implementar</text></g><g><rect x="2914" y="6418" width="20" height="20" fill="#008DB8"/></g><g><text fill="#595959" font-family="Varela Round,Varela Round_MSFontService,sans-serif" font-weight="400" font-size="37" transform="matrix(1 0 0 1 2942.08 6438)">Brecha Programada % 2023</text></g><g><rect x="3499" y="6418" width="20" height="20" fill="#0DC5FF"/></g><g><text fill="#595959" font-family="Varela Round,Varela Round_MSFontService,sans-serif" font-weight="400" font-size="37" transform="matrix(1 0 0 1 3527.43 6438)">Brecha % 2023</text></g><g><path d="M4355.14 5861.19 4445.15 5861.19 4445.15 5934.19 4355.14 5934.19ZM4444 6185.2 4445.15 6185.2 4445.15 6258.21 4444 6258.21Z" fill="#767171"/></g><g><path d="M4444.5 5735.5 4444.5 6383.5" stroke="#D9D9D9" stroke-width="3.4375" stroke-linejoin="round" stroke-miterlimit="10" fill="none" fill-rule="evenodd"/></g><g><text fill="#404040" font-family="Varela Round,Varela Round_MSFontService,sans-serif" font-weight="700" font-size="32" transform="matrix(1 0 0 1 4243.51 5908)">-</text></g><g><text fill="#404040" font-family="Varela Round,Varela Round_MSFontService,sans-serif" font-weight="700" font-size="32" transform="matrix(1 0 0 1 4256.64 5908)">6.7%</text></g><g><text fill="#404040" font-family="Varela Round,Varela Round_MSFontService,sans-serif" font-weight="700" font-size="32" transform="matrix(1 0 0 1 4344.82 6231)">0%</text></g><g><rect x="4314" y="6423" width="20" height="20" fill="#767171"/></g><g><text fill="#595959" font-family="Varela Round,Varela Round_MSFontService,sans-serif" font-weight="400" font-size="37" transform="matrix(1 0 0 1 4342.11 6443)">Dif</text></g></g></svg>