<svg width="1962" height="1638" xmlns="http://www.w3.org/2000/svg" xmlns:xlink="http://www.w3.org/1999/xlink" xml:space="preserve" overflow="hidden"><defs><clipPath id="clip0"><rect x="2527" y="7580" width="1962" height="1638"/></clipPath></defs><g clip-path="url(#clip0)" transform="translate(-2527 -7580)"><g><path d="M3595.12 7942.26 3246 7942.26 3246 8008.26 3595.12 8008.26ZM3596.12 8180.27 3246 8180.27 3246 8246.27 3596.12 8246.27ZM3609.12 8417.28 3246 8417.28 3246 8483.28 3609.12 8483.28ZM3581.12 8654.28 3246 8654.28 3246 8720.29 3581.12 8720.29ZM3566.12 8892.29 3246 8892.29 3246 8957.29 3566.12 8957.29Z" fill="#004899"/></g><g><path d="M3641.12 7771.25 3246 7771.25 3246 7837.26 3641.12 7837.26ZM3626.12 8008.26 3246 8008.26 3246 8074.27 3626.12 8074.27ZM3621.12 8246.27 3246 8246.27 3246 8312.27 3621.12 8312.27ZM3609.12 8483.28 3246 8483.28 3246 8549.28 3609.12 8549.28ZM3581.12 8720.29 3246 8720.29 3246 8786.29 3581.12 8786.29ZM3566.12 8957.29 3246 8957.29 3246 9023.3 3566.12 9023.3Z" fill="#3F9AFF"/></g><g><path d="M3245.5 7652.5 3245.5 9076.5" stroke="#D9D9D9" stroke-width="3.4375" stroke-linejoin="round" stroke-miterlimit="10" fill="none" fill-rule="evenodd"/></g><g><text font-family="Varela Round,Varela Round_MSFontService,sans-serif" font-weight="700" font-size="32" transform="matrix(1 0 0 1 3345.39 7717)">0%</text></g><g><g><text font-family="Varela Round,Varela Round_MSFontService,sans-serif" font-weight="400" font-size="32" transform="matrix(1 0 0 1 3276.16 7756)">(0 Mercado)</text></g></g><g><text font-family="Varela Round,Varela Round_MSFontService,sans-serif" font-weight="700" font-size="32" transform="matrix(1 0 0 1 3687.79 7961)">87.4%</text></g><g><text font-family="Varela Round,Varela Round_MSFontService,sans-serif" font-weight="400" font-size="32" transform="matrix(1 0 0 1 3622.77 8000)">(235 Mercado)</text></g><g><text font-family="Varela Round,Varela Round_MSFontService,sans-serif" font-weight="700" font-size="32" transform="matrix(1 0 0 1 3750.53 8190)">87.5%</text></g><g><g><text font-family="Varela Round,Varela Round_MSFontService,sans-serif" font-weight="400" font-size="32" transform="matrix(1 0 0 1 3633.2 8229)">(42 Desembarcadero)</text></g></g><g><text font-family="Varela Round,Varela Round_MSFontService,sans-serif" font-weight="700" font-size="32" transform="matrix(1 0 0 1 3755.43 8422)">90.9%</text></g><g><g><text font-family="Varela Round,Varela Round_MSFontService,sans-serif" font-weight="400" font-size="32" transform="matrix(1 0 0 1 3638.1 8461)">(10 Desembarcadero)</text></g></g><g><g><text font-family="Varela Round,Varela Round_MSFontService,sans-serif" font-weight="700" font-size="32" transform="matrix(1 0 0 1 3698.43 8660)">83.9%</text></g></g><g><g><text font-family="Varela Round,Varela Round_MSFontService,sans-serif" font-weight="400" font-size="32" transform="matrix(1 0 0 1 3608.69 8699)">(26 C. Innovación)</text></g></g><g><text font-family="Varela Round,Varela Round_MSFontService,sans-serif" font-weight="700" font-size="32" transform="matrix(1 0 0 1 3678.58 8892)">80.0%</text></g><g><g><text font-family="Varela Round,Varela Round_MSFontService,sans-serif" font-weight="400" font-size="32" transform="matrix(1 0 0 1 3598.9 8931)">(4 C. Innovación)</text></g></g><g><text font-family="Varela Round,Varela Round_MSFontService,sans-serif" font-weight="700" font-size="32" transform="matrix(1 0 0 1 3729.11 7795)">98.8%</text></g><g><text font-family="Varela Round,Varela Round_MSFontService,sans-serif" font-weight="400" font-size="32" transform="matrix(1 0 0 1 3664.1 7834)">(756 Mercado)</text></g><g><text font-family="Varela Round,Varela Round_MSFontService,sans-serif" font-weight="700" font-size="32" transform="matrix(1 0 0 1 3719.01 8041)">95.2%</text></g><g><text font-family="Varela Round,Varela Round_MSFontService,sans-serif" font-weight="400" font-size="32" transform="matrix(1 0 0 1 3654 8080)">(256 Mercado)</text></g><g><text font-family="Varela Round,Varela Round_MSFontService,sans-serif" font-weight="700" font-size="32" transform="matrix(1 0 0 1 3771.32 8274)">93.8%</text></g><g><g><text font-family="Varela Round,Varela Round_MSFontService,sans-serif" font-weight="400" font-size="32" transform="matrix(1 0 0 1 3653.99 8313)">(45 Desembarcadero)</text></g></g><g><text font-family="Varela Round,Varela Round_MSFontService,sans-serif" font-weight="700" font-size="32" transform="matrix(1 0 0 1 3769.32 8516)">90.9%</text></g><g><g><text font-family="Varela Round,Varela Round_MSFontService,sans-serif" font-weight="400" font-size="32" transform="matrix(1 0 0 1 3651.99 8555)">(10 Desembarcadero)</text></g></g><g><text font-family="Varela Round,Varela Round_MSFontService,sans-serif" font-weight="700" font-size="32" transform="matrix(1 0 0 1 3691.64 8751)">83.9%</text></g><g><g><text font-family="Varela Round,Varela Round_MSFontService,sans-serif" font-weight="400" font-size="32" transform="matrix(1 0 0 1 3601.89 8790)">(26 C. Innovación)</text></g></g><g><text font-family="Varela Round,Varela Round_MSFontService,sans-serif" font-weight="700" font-size="32" transform="matrix(1 0 0 1 3673.74 8986)">80.0%</text></g><g><g><text font-family="Varela Round,Varela Round_MSFontService,sans-serif" font-weight="400" font-size="32" transform="matrix(1 0 0 1 3594.06 9025)">(4 C. Innovación)</text></g></g><g><text font-family="Varela Round,Varela Round_MSFontService,sans-serif" font-weight="400" font-size="32" transform="matrix(1 0 0 1 2606.52 7760)">Porcentaje de mercados de abastos que</text></g><g><text font-family="Varela Round,Varela Round_MSFontService,sans-serif" font-weight="400" font-size="32" transform="matrix(1 0 0 1 2639.18 7799)">operan en condiciones inadecuadas</text></g><g><text font-family="Varela Round,Varela Round_MSFontService,sans-serif" font-weight="400" font-size="32" transform="matrix(1 0 0 1 2612.43 7997)">Porcentaje de mercados de abastos por</text></g><g><text font-family="Varela Round,Varela Round_MSFontService,sans-serif" font-weight="400" font-size="32" transform="matrix(1 0 0 1 2817.79 8036)">implementar</text></g><g><text font-family="Varela Round,Varela Round_MSFontService,sans-serif" font-weight="400" font-size="32" transform="matrix(1 0 0 1 2557 8215)">Porcentaje de desembarcaderos pesqueros</text></g><g><text font-family="Varela Round,Varela Round_MSFontService,sans-serif" font-weight="400" font-size="32" transform="matrix(1 0 0 1 2590.79 8254)">artesanales que operan en condiciones</text></g><g><text font-family="Varela Round,Varela Round_MSFontService,sans-serif" font-weight="400" font-size="32" transform="matrix(1 0 0 1 2790.69 8293)">inadecuadas</text></g><g><text font-family="Varela Round,Varela Round_MSFontService,sans-serif" font-weight="400" font-size="32" transform="matrix(1 0 0 1 2557 8472)">Porcentaje de desembarcaderos pesqueros</text></g><g><text font-family="Varela Round,Varela Round_MSFontService,sans-serif" font-weight="400" font-size="32" transform="matrix(1 0 0 1 2669.07 8511)">artesanales por implementar</text></g><g><text font-family="Varela Round,Varela Round_MSFontService,sans-serif" font-weight="400" font-size="32" transform="matrix(1 0 0 1 2646.78 8690)">Porcentaje de centros de innovación</text></g><g><text font-family="Varela Round,Varela Round_MSFontService,sans-serif" font-weight="400" font-size="32" transform="matrix(1 0 0 1 2631.77 8729)">productiva y transferencia tecnológica</text></g><g><text font-family="Varela Round,Varela Round_MSFontService,sans-serif" font-weight="400" font-size="32" transform="matrix(1 0 0 1 2718.33 8767)">(CITE/UT) por implementar</text></g><g><text font-family="Varela Round,Varela Round_MSFontService,sans-serif" font-weight="400" font-size="32" transform="matrix(1 0 0 1 2646.78 8908)">Porcentaje de centros de innovación</text></g><g><text font-family="Varela Round,Varela Round_MSFontService,sans-serif" font-weight="400" font-size="32" transform="matrix(1 0 0 1 2631.77 8947)">productiva y transferencia tecnológica</text></g><g><text font-family="Varela Round,Varela Round_MSFontService,sans-serif" font-weight="400" font-size="32" transform="matrix(1 0 0 1 2640.05 8985)">(CITE/UT) que operan en condiciones</text></g><g><text font-family="Varela Round,Varela Round_MSFontService,sans-serif" font-weight="400" font-size="32" transform="matrix(1 0 0 1 2828.08 9024)">inadecuadas</text></g><g><rect x="2843" y="9145" width="19" height="20" fill="#004899"/></g><g><text fill="#595959" font-family="Varela Round,Varela Round_MSFontService,sans-serif" font-weight="400" font-size="37" transform="matrix(1 0 0 1 2870.66 9165)">Brecha Programada % 2023</text></g><g><rect x="3428" y="9145" width="20.0002" height="20" fill="#3F9AFF"/></g><g><text fill="#595959" font-family="Varela Round,Varela Round_MSFontService,sans-serif" font-weight="400" font-size="37" transform="matrix(1 0 0 1 3456.01 9165)">Brecha % 2023</text></g><g><path d="M4077.13 7738.25 4442.15 7738.25 4442.15 7791.26 4077.13 7791.26ZM4413.14 7971.26 4442.15 7971.26 4442.15 8023.26 4413.14 8023.26ZM4419.15 8204.27 4442.15 8204.27 4442.15 8256.27 4419.15 8256.27Z" fill="#767171"/></g><g><path d="M4442.5 7648.5 4442.5 9045.5" stroke="#D9D9D9" stroke-width="3.4375" stroke-linejoin="round" stroke-miterlimit="10" fill="none" fill-rule="evenodd"/></g><g><path d="M4442.5 8463.5 4441.65 8454.5 4420.5 8454.5" stroke="#A6A6A6" stroke-width="3.4375" stroke-linejoin="round" stroke-miterlimit="10" fill="none"/></g><g><path d="M4442.5 8929.5 4436.65 8928.5 4416.5 8928.5" stroke="#A6A6A6" stroke-width="3.4375" stroke-linejoin="round" stroke-miterlimit="10" fill="none"/></g><g><text fill="#404040" font-family="Varela Round,Varela Round_MSFontService,sans-serif" font-weight="700" font-size="32" transform="matrix(1 0 0 1 3930.76 7774)">-</text></g><g><text fill="#404040" font-family="Varela Round,Varela Round_MSFontService,sans-serif" font-weight="700" font-size="32" transform="matrix(1 0 0 1 3943.89 7774)">98.8%</text></g><g><text fill="#404040" font-family="Varela Round,Varela Round_MSFontService,sans-serif" font-weight="700" font-size="32" transform="matrix(1 0 0 1 4302.23 8007)">-</text></g><g><text fill="#404040" font-family="Varela Round,Varela Round_MSFontService,sans-serif" font-weight="700" font-size="32" transform="matrix(1 0 0 1 4315.36 8007)">7.8%</text></g><g><text fill="#404040" font-family="Varela Round,Varela Round_MSFontService,sans-serif" font-weight="700" font-size="32" transform="matrix(1 0 0 1 4303.43 8240)">-</text></g><g><text fill="#404040" font-family="Varela Round,Varela Round_MSFontService,sans-serif" font-weight="700" font-size="32" transform="matrix(1 0 0 1 4316.57 8240)">6.3%</text></g><g><text fill="#404040" font-family="Varela Round,Varela Round_MSFontService,sans-serif" font-weight="700" font-size="32" transform="matrix(1 0 0 1 4360.74 8464)">0%</text></g><g><text fill="#404040" font-family="Varela Round,Varela Round_MSFontService,sans-serif" font-weight="700" font-size="32" transform="matrix(1 0 0 1 4365.27 8701)">0%</text></g><g><text fill="#404040" font-family="Varela Round,Varela Round_MSFontService,sans-serif" font-weight="700" font-size="32" transform="matrix(1 0 0 1 4356.2 8939)">0%</text></g><g><rect x="4367" y="9136" width="20" height="20" fill="#767171"/></g><g><text fill="#595959" font-family="Varela Round,Varela Round_MSFontService,sans-serif" font-weight="400" font-size="37" transform="matrix(1 0 0 1 4394.97 9156)">Dif</text></g></g></svg>