<svg width="2002" height="1638" xmlns="http://www.w3.org/2000/svg" xmlns:xlink="http://www.w3.org/1999/xlink" xml:space="preserve" overflow="hidden"><defs><clipPath id="clip0"><rect x="2508" y="9455" width="2002" height="1638"/></clipPath></defs><g clip-path="url(#clip0)" transform="translate(-2508 -9455)"><g><path d="M3696.12 9575.31 3282 9575.31 3282 9640.32 3696.12 9640.32ZM3689.12 9810.32 3282 9810.32 3282 9875.32 3689.12 9875.32ZM3649.12 10280.3 3282 10280.3 3282 10345.3 3649.12 10345.3ZM3440.11 10515.3 3282 10515.3 3282 10580.3 3440.11 10580.3ZM3284.11 10750.4 3282 10750.4 3282 10815.4 3284.11 10815.4Z" fill="#3ABEB0"/></g><g><path d="M3696.12 9640.32 3282 9640.32 3282 9706.32 3696.12 9706.32ZM3695.12 9875.32 3282 9875.32 3282 9941.33 3695.12 9941.33ZM3688.12 10110.3 3282 10110.3 3282 10176.3 3688.12 10176.3ZM3664.12 10345.3 3282 10345.3 3282 10411.3 3664.12 10411.3ZM3440.11 10580.3 3282 10580.3 3282 10646.3 3440.11 10646.3ZM3350.11 10815.4 3282 10815.4 3282 10881.4 3350.11 10881.4Z" fill="#8CDCD4"/></g><g><path d="M3281.5 9523.5 3281.5 10933.5" stroke="#D9D9D9" stroke-width="3.4375" stroke-linejoin="round" stroke-miterlimit="10" fill="none" fill-rule="evenodd"/></g><g><path d="M3696.5 9608.5 3696.62 9594.5 3716.5 9594.5" stroke="#A6A6A6" stroke-width="3.4375" stroke-linejoin="round" stroke-miterlimit="10" fill="none"/></g><g><text font-family="Varela Round,Varela Round_MSFontService,sans-serif" font-weight="700" font-size="32" transform="matrix(1 0 0 1 3835.05 9585)">100.0%</text></g><g><g><text font-family="Varela Round,Varela Round_MSFontService,sans-serif" font-weight="400" font-size="32" transform="matrix(1 0 0 1 3738.34 9624)">(13 I.Especializados)</text></g></g><g><text font-family="Varela Round,Varela Round_MSFontService,sans-serif" font-weight="700" font-size="32" transform="matrix(1 0 0 1 3777.67 9829)">98.3%</text></g><g><g><text font-family="Varela Round,Varela Round_MSFontService,sans-serif" font-weight="400" font-size="32" transform="matrix(1 0 0 1 3722.35 9868)">(1,984 CPVC)</text></g></g><g><text font-family="Varela Round,Varela Round_MSFontService,sans-serif" font-weight="700" font-size="32" transform="matrix(1 0 0 1 3357.38 10055)">0%</text></g><g><text font-family="Varela Round,Varela Round_MSFontService,sans-serif" font-weight="400" font-size="32" transform="matrix(1 0 0 1 3309.19 10094)">(E. Salud)</text></g><g><text font-family="Varela Round,Varela Round_MSFontService,sans-serif" font-weight="700" font-size="32" transform="matrix(1 0 0 1 3734.65 10285)">88.6%</text></g><g><text font-family="Varela Round,Varela Round_MSFontService,sans-serif" font-weight="400" font-size="32" transform="matrix(1 0 0 1 3676.42 10324)">(218 E. Salud)</text></g><g><text font-family="Varela Round,Varela Round_MSFontService,sans-serif" font-weight="700" font-size="32" transform="matrix(1 0 0 1 3526.32 10538)">38.3%</text></g><g><text font-family="Varela Round,Varela Round_MSFontService,sans-serif" font-weight="400" font-size="32" transform="matrix(1 0 0 1 3468.09 10577)">(153 E. Salud)</text></g><g><text font-family="Varela Round,Varela Round_MSFontService,sans-serif" font-weight="700" font-size="32" transform="matrix(1 0 0 1 3369.57 10750)">0.5%</text></g><g><text font-family="Varela Round,Varela Round_MSFontService,sans-serif" font-weight="400" font-size="32" transform="matrix(1 0 0 1 3311.34 10789)">(56 E. Salud)</text></g><g><text font-family="Varela Round,Varela Round_MSFontService,sans-serif" font-weight="700" font-size="32" transform="matrix(1 0 0 1 3837.39 9659)">100.0%</text></g><g><text font-family="Varela Round,Varela Round_MSFontService,sans-serif" font-weight="400" font-size="32" transform="matrix(1 0 0 1 3740.69 9698)">(13 I.Especializados)</text></g><g><text font-family="Varela Round,Varela Round_MSFontService,sans-serif" font-weight="700" font-size="32" transform="matrix(1 0 0 1 3782.59 9908)">99.8%</text></g><g><text font-family="Varela Round,Varela Round_MSFontService,sans-serif" font-weight="400" font-size="32" transform="matrix(1 0 0 1 3727.27 9947)">(2,014 CPVC)</text></g><g><text font-family="Varela Round,Varela Round_MSFontService,sans-serif" font-weight="700" font-size="32" transform="matrix(1 0 0 1 3787.99 10134)">98.1%</text></g><g><text font-family="Varela Round,Varela Round_MSFontService,sans-serif" font-weight="400" font-size="32" transform="matrix(1 0 0 1 3715.53 10173)">(8,780 E. Salud)</text></g><g><text font-family="Varela Round,Varela Round_MSFontService,sans-serif" font-weight="700" font-size="32" transform="matrix(1 0 0 1 3749.81 10373)">92.3%</text></g><g><text font-family="Varela Round,Varela Round_MSFontService,sans-serif" font-weight="400" font-size="32" transform="matrix(1 0 0 1 3691.58 10412)">(227 E. Salud)</text></g><g><text font-family="Varela Round,Varela Round_MSFontService,sans-serif" font-weight="700" font-size="32" transform="matrix(1 0 0 1 3526.32 10617)">38.3%</text></g><g><text font-family="Varela Round,Varela Round_MSFontService,sans-serif" font-weight="400" font-size="32" transform="matrix(1 0 0 1 3468.09 10656)">(153 E. Salud)</text></g><g><text font-family="Varela Round,Varela Round_MSFontService,sans-serif" font-weight="700" font-size="32" transform="matrix(1 0 0 1 3454.79 10852)">16.6%</text></g><g><text font-family="Varela Round,Varela Round_MSFontService,sans-serif" font-weight="400" font-size="32" transform="matrix(1 0 0 1 3382.33 10891)">(1,782 E. Salud)</text></g><g><text font-family="Varela Round,Varela Round_MSFontService,sans-serif" font-weight="400" font-size="32" transform="matrix(1 0 0 1 2525.74 9629)">Porcentaje de institutos de salud especializados</text></g><g><text font-family="Varela Round,Varela Round_MSFontService,sans-serif" font-weight="400" font-size="32" transform="matrix(1 0 0 1 2612.83 9668)">con capacidad instalada inadecuada</text></g><g><text font-family="Varela Round,Varela Round_MSFontService,sans-serif" font-weight="400" font-size="32" transform="matrix(1 0 0 1 2522.46 9864)">Porcentaje de centros de promoción y vigilancia</text></g><g><text font-family="Varela Round,Varela Round_MSFontService,sans-serif" font-weight="400" font-size="32" transform="matrix(1 0 0 1 2632.39 9903)">comunal (CPVC) por implementar</text></g><g><text font-family="Varela Round,Varela Round_MSFontService,sans-serif" font-weight="400" font-size="32" transform="matrix(1 0 0 1 2584.11 10080)">Porcentaje de establecimientos de salud del</text></g><g><text font-family="Varela Round,Varela Round_MSFontService,sans-serif" font-weight="400" font-size="32" transform="matrix(1 0 0 1 2620.1 10119)">primer nivel de atención con capacidad</text></g><g><text font-family="Varela Round,Varela Round_MSFontService,sans-serif" font-weight="400" font-size="32" transform="matrix(1 0 0 1 2756.93 10157)">instalada inadecuada</text></g><g><text font-family="Varela Round,Varela Round_MSFontService,sans-serif" font-weight="400" font-size="32" transform="matrix(1 0 0 1 2648.39 10334)">Porcentaje de hospitales con capacidad</text></g><g><text font-family="Varela Round,Varela Round_MSFontService,sans-serif" font-weight="400" font-size="32" transform="matrix(1 0 0 1 2789.07 10373)">instalada inadecuada</text></g><g><text font-family="Varela Round,Varela Round_MSFontService,sans-serif" font-weight="400" font-size="32" transform="matrix(1 0 0 1 2615.96 10589)">Porcentaje de hospitales por implementar</text></g><g><text font-family="Varela Round,Varela Round_MSFontService,sans-serif" font-weight="400" font-size="32" transform="matrix(1 0 0 1 2584.11 10804)">Porcentaje de establecimientos de salud del</text></g><g><text font-family="Varela Round,Varela Round_MSFontService,sans-serif" font-weight="400" font-size="32" transform="matrix(1 0 0 1 2603.88 10843)">primer nivel de atención por implementar</text></g><g><rect x="2865" y="11020" width="20" height="20" fill="#3ABEB0"/></g><g><text fill="#595959" font-family="Varela Round,Varela Round_MSFontService,sans-serif" font-weight="400" font-size="37" transform="matrix(1 0 0 1 2892.81 11040)">Brecha Programada % 2023</text></g><g><rect x="3450" y="11020" width="20.0002" height="20" fill="#8CDCD4"/></g><g><text fill="#595959" font-family="Varela Round,Varela Round_MSFontService,sans-serif" font-weight="400" font-size="37" transform="matrix(1 0 0 1 3478.16 11040)">Brecha % 2023</text></g><g><path d="M4454.15 9833.32 4457.15 9833.32 4457.15 9887.32 4454.15 9887.32ZM4246.14 10073.3 4457.15 10073.3 4457.15 10127.3 4246.14 10127.3ZM4450.15 10312.3 4457.15 10312.3 4457.15 10366.3 4450.15 10366.3ZM4423.15 10791.4 4457.15 10791.4 4457.15 10845.4 4423.15 10845.4Z" fill="#767171"/></g><g><path d="M4457.5 9501.5 4457.5 10937.5" stroke="#D9D9D9" stroke-width="3.4375" stroke-linejoin="round" stroke-miterlimit="10" fill="none" fill-rule="evenodd"/></g><g><text fill="#404040" font-family="Varela Round,Varela Round_MSFontService,sans-serif" font-weight="700" font-size="32" transform="matrix(1 0 0 1 4383.78 9631)">0%</text></g><g><text fill="#404040" font-family="Varela Round,Varela Round_MSFontService,sans-serif" font-weight="700" font-size="32" transform="matrix(1 0 0 1 4312.32 9870)">-</text></g><g><text fill="#404040" font-family="Varela Round,Varela Round_MSFontService,sans-serif" font-weight="700" font-size="32" transform="matrix(1 0 0 1 4325.46 9870)">1.5%</text></g><g><text fill="#404040" font-family="Varela Round,Varela Round_MSFontService,sans-serif" font-weight="700" font-size="32" transform="matrix(1 0 0 1 4108.36 10110)">-</text></g><g><text fill="#404040" font-family="Varela Round,Varela Round_MSFontService,sans-serif" font-weight="700" font-size="32" transform="matrix(1 0 0 1 4121.49 10110)">98.1%</text></g><g><text fill="#404040" font-family="Varela Round,Varela Round_MSFontService,sans-serif" font-weight="700" font-size="32" transform="matrix(1 0 0 1 4304.73 10349)">-</text></g><g><text fill="#404040" font-family="Varela Round,Varela Round_MSFontService,sans-serif" font-weight="700" font-size="32" transform="matrix(1 0 0 1 4317.86 10349)">3.7%</text></g><g><text fill="#404040" font-family="Varela Round,Varela Round_MSFontService,sans-serif" font-weight="700" font-size="32" transform="matrix(1 0 0 1 4391.54 10589)">0%</text></g><g><text fill="#404040" font-family="Varela Round,Varela Round_MSFontService,sans-serif" font-weight="700" font-size="32" transform="matrix(1 0 0 1 4266.51 10828)">-</text></g><g><text fill="#404040" font-family="Varela Round,Varela Round_MSFontService,sans-serif" font-weight="700" font-size="32" transform="matrix(1 0 0 1 4279.64 10828)">16.0%</text></g><g><rect x="4352" y="10997" width="20.0005" height="20" fill="#767171"/></g><g><text fill="#595959" font-family="Varela Round,Varela Round_MSFontService,sans-serif" font-weight="400" font-size="37" transform="matrix(1 0 0 1 4380.27 11017)">Dif</text></g></g></svg>