<svg width="2191" height="1744" xmlns="http://www.w3.org/2000/svg" xmlns:xlink="http://www.w3.org/1999/xlink" xml:space="preserve" overflow="hidden"><defs><clipPath id="clip0"><rect x="2508" y="11315" width="2191" height="1744"/></clipPath></defs><g clip-path="url(#clip0)" transform="translate(-2508 -11315)"><g><path d="M3906.13 11403.4 3377 11403.4 3377 11445.4 3906.13 11445.4ZM3841.13 11520.4 3377 11520.4 3377 11563.4 3841.13 11563.4ZM3765.12 11755.4 3377 11755.4 3377 11797.4 3765.12 11797.4ZM3722.12 11872.4 3377 11872.4 3377 11915.4 3722.12 11915.4ZM3721.12 11989.4 3377 11989.4 3377 12032.4 3721.12 12032.4ZM3677.12 12107.4 3377 12107.4 3377 12149.4 3677.12 12149.4ZM3676.12 12224.4 3377 12224.4 3377 12267.4 3676.12 12267.4ZM3550.12 12341.4 3377 12341.4 3377 12384.4 3550.12 12384.4ZM3465.11 12459.4 3377 12459.4 3377 12501.4 3465.11 12501.4ZM3427.11 12576.4 3377 12576.4 3377 12619.4 3427.11 12619.4ZM3417.11 12693.4 3377 12693.4 3377 12736.4 3417.11 12736.4ZM3377 12811.4 3378 12811.4 3378 12853.4 3377 12853.4Z" fill="#ED3237"/></g><g><path d="M3905.13 11445.4 3377 11445.4 3377 11488.4 3905.13 11488.4ZM3841.13 11563.4 3377 11563.4 3377 11605.4 3841.13 11605.4ZM3784.12 11680.4 3377 11680.4 3377 11723.4 3784.12 11723.4ZM3765.12 11797.4 3377 11797.4 3377 11840.4 3765.12 11840.4ZM3722.12 11915.4 3377 11915.4 3377 11957.4 3722.12 11957.4ZM3721.12 12032.4 3377 12032.4 3377 12075.4 3721.12 12075.4ZM3677.12 12149.4 3377 12149.4 3377 12192.4 3677.12 12192.4ZM3676.12 12267.4 3377 12267.4 3377 12309.4 3676.12 12309.4ZM3550.12 12384.4 3377 12384.4 3377 12427.4 3550.12 12427.4ZM3465.11 12501.4 3377 12501.4 3377 12544.4 3465.11 12544.4ZM3427.11 12619.4 3377 12619.4 3377 12661.4 3427.11 12661.4ZM3417.11 12736.4 3377 12736.4 3377 12779.4 3417.11 12779.4ZM3377 12853.4 3378 12853.4 3378 12896.4 3377 12896.4Z" fill="#F69294"/></g><g><path d="M3377.5 11387.5 3377.5 12912.5" stroke="#D9D9D9" stroke-width="3.4375" stroke-linejoin="round" stroke-miterlimit="10" fill="none" fill-rule="evenodd"/></g><g><g><text font-family="Varela Round,Varela Round_MSFontService,sans-serif" font-weight="700" font-size="32" transform="matrix(1 0 0 1 3933.81 11434)">86.0%</text></g></g><g><g><text font-family="Varela Round,Varela Round_MSFontService,sans-serif" font-weight="400" font-size="32" transform="matrix(1 0 0 1 4037.25 11434)">(22,895 CP)</text></g></g><g><text font-family="Varela Round,Varela Round_MSFontService,sans-serif" font-weight="700" font-size="32" transform="matrix(1 0 0 1 3868.75 11551)">75.4%</text></g><g><text font-family="Varela Round,Varela Round_MSFontService,sans-serif" font-weight="400" font-size="32" transform="matrix(1 0 0 1 3972.19 11551)">(516 Km)</text></g><g><g><text font-family="Varela Round,Varela Round_MSFontService,sans-serif" font-weight="700" font-size="32" transform="matrix(1 0 0 1 3424.7 11664)">0.0%</text></g></g><g><g><text font-family="Varela Round,Varela Round_MSFontService,sans-serif" font-weight="400" font-size="32" transform="matrix(1 0 0 1 3507.95 11664)">(0 Km)</text></g></g><g><text font-family="Varela Round,Varela Round_MSFontService,sans-serif" font-weight="700" font-size="32" transform="matrix(1 0 0 1 3792.93 11786)">63.1%</text></g><g><text font-family="Varela Round,Varela Round_MSFontService,sans-serif" font-weight="400" font-size="32" transform="matrix(1 0 0 1 3896.38 11786)">(106 Km)</text></g><g><text font-family="Varela Round,Varela Round_MSFontService,sans-serif" font-weight="700" font-size="32" transform="matrix(1 0 0 1 3749.57 11903)">56.0%</text></g><g><text font-family="Varela Round,Varela Round_MSFontService,sans-serif" font-weight="400" font-size="32" transform="matrix(1 0 0 1 3853.01 11903)">(15,672 Km)</text></g><g><text font-family="Varela Round,Varela Round_MSFontService,sans-serif" font-weight="700" font-size="32" transform="matrix(1 0 0 1 3749.06 12021)">56.0%</text></g><g><text font-family="Varela Round,Varela Round_MSFontService,sans-serif" font-weight="400" font-size="32" transform="matrix(1 0 0 1 3852.51 12021)">(132,677 Km)</text></g><g><text font-family="Varela Round,Varela Round_MSFontService,sans-serif" font-weight="700" font-size="32" transform="matrix(1 0 0 1 3704.13 12138)">48.7% </text></g><g><text font-family="Varela Round,Varela Round_MSFontService,sans-serif" font-weight="400" font-size="32" transform="matrix(1 0 0 1 3807.58 12138)">(10,321 CP)</text></g><g><g><text font-family="Varela Round,Varela Round_MSFontService,sans-serif" font-weight="700" font-size="32" transform="matrix(1 0 0 1 3700.17 12255)">48.5%</text></g></g><g><g><text font-family="Varela Round,Varela Round_MSFontService,sans-serif" font-weight="400" font-size="32" transform="matrix(1 0 0 1 3803.62 12255)">(33 Aeródromo)</text></g></g><g><text font-family="Varela Round,Varela Round_MSFontService,sans-serif" font-weight="700" font-size="32" transform="matrix(1 0 0 1 3577.37 12373)">28.1%</text></g><g><text font-family="Varela Round,Varela Round_MSFontService,sans-serif" font-weight="400" font-size="32" transform="matrix(1 0 0 1 3680.81 12373)">(15,306 Km)</text></g><g><text font-family="Varela Round,Varela Round_MSFontService,sans-serif" font-weight="700" font-size="32" transform="matrix(1 0 0 1 3492.94 12490)">14.3%</text></g><g><text font-family="Varela Round,Varela Round_MSFontService,sans-serif" font-weight="400" font-size="32" transform="matrix(1 0 0 1 3596.38 12490)">(4,675 Km)</text></g><g><text font-family="Varela Round,Varela Round_MSFontService,sans-serif" font-weight="700" font-size="32" transform="matrix(1 0 0 1 3454.7 12607)">8.1%</text></g><g><text font-family="Varela Round,Varela Round_MSFontService,sans-serif" font-weight="400" font-size="32" transform="matrix(1 0 0 1 3537.95 12607)">(6 Aeródromo)</text></g><g><text font-family="Varela Round,Varela Round_MSFontService,sans-serif" font-weight="700" font-size="32" transform="matrix(1 0 0 1 3444.27 12725)">6.4%</text></g><g><text font-family="Varela Round,Varela Round_MSFontService,sans-serif" font-weight="400" font-size="32" transform="matrix(1 0 0 1 3527.53 12725)">(1,880 Km)</text></g><g><text font-family="Varela Round,Varela Round_MSFontService,sans-serif" font-weight="700" font-size="32" transform="matrix(1 0 0 1 3405.37 12842)">0.1%</text></g><g><text font-family="Varela Round,Varela Round_MSFontService,sans-serif" font-weight="400" font-size="32" transform="matrix(1 0 0 1 3488.63 12842)">(212 Km)</text></g><g><g><text font-family="Varela Round,Varela Round_MSFontService,sans-serif" font-weight="700" font-size="32" transform="matrix(1 0 0 1 3930.63 11491)">85.9% </text></g></g><g><g><text font-family="Varela Round,Varela Round_MSFontService,sans-serif" font-weight="400" font-size="32" transform="matrix(1 0 0 1 4034.08 11491)">(23,094 CP) </text></g></g><g><text font-family="Varela Round,Varela Round_MSFontService,sans-serif" font-weight="700" font-size="32" transform="matrix(1 0 0 1 3868.75 11594)">75.4% </text></g><g><text font-family="Varela Round,Varela Round_MSFontService,sans-serif" font-weight="400" font-size="32" transform="matrix(1 0 0 1 3972.19 11594)">(516 Km)  </text></g><g><text font-family="Varela Round,Varela Round_MSFontService,sans-serif" font-weight="700" font-size="32" transform="matrix(1 0 0 1 3811.3 11711)">66.1%</text></g><g><text font-family="Varela Round,Varela Round_MSFontService,sans-serif" font-weight="400" font-size="32" transform="matrix(1 0 0 1 3914.75 11711)">(3,849 Km)</text></g><g><text font-family="Varela Round,Varela Round_MSFontService,sans-serif" font-weight="700" font-size="32" transform="matrix(1 0 0 1 3792.93 11829)">63.1%</text></g><g><text font-family="Varela Round,Varela Round_MSFontService,sans-serif" font-weight="400" font-size="32" transform="matrix(1 0 0 1 3896.38 11829)">(106 Km)</text></g><g><text font-family="Varela Round,Varela Round_MSFontService,sans-serif" font-weight="700" font-size="32" transform="matrix(1 0 0 1 3749.57 11946)">56.0%</text></g><g><text font-family="Varela Round,Varela Round_MSFontService,sans-serif" font-weight="400" font-size="32" transform="matrix(1 0 0 1 3853.01 11946)">(15,672 Km)</text></g><g><text font-family="Varela Round,Varela Round_MSFontService,sans-serif" font-weight="700" font-size="32" transform="matrix(1 0 0 1 3748.94 12063)">55.9%</text></g><g><text font-family="Varela Round,Varela Round_MSFontService,sans-serif" font-weight="400" font-size="32" transform="matrix(1 0 0 1 3852.38 12063)">(132,628 Km)</text></g><g><text font-family="Varela Round,Varela Round_MSFontService,sans-serif" font-weight="700" font-size="32" transform="matrix(1 0 0 1 3704.13 12181)">48.7%</text></g><g><text font-family="Varela Round,Varela Round_MSFontService,sans-serif" font-weight="400" font-size="32" transform="matrix(1 0 0 1 3807.58 12181)">(10,321 CP)</text></g><g><g><text font-family="Varela Round,Varela Round_MSFontService,sans-serif" font-weight="700" font-size="32" transform="matrix(1 0 0 1 3694.93 12296)">48.5% </text></g></g><g><g><text font-family="Varela Round,Varela Round_MSFontService,sans-serif" font-weight="400" font-size="32" transform="matrix(1 0 0 1 3798.38 12296)">(33 Aeródromo)</text></g></g><g><text font-family="Varela Round,Varela Round_MSFontService,sans-serif" font-weight="700" font-size="32" transform="matrix(1 0 0 1 3577.37 12415)">28.1%</text></g><g><text font-family="Varela Round,Varela Round_MSFontService,sans-serif" font-weight="400" font-size="32" transform="matrix(1 0 0 1 3680.81 12415)">(15,306 Km)</text></g><g><text font-family="Varela Round,Varela Round_MSFontService,sans-serif" font-weight="700" font-size="32" transform="matrix(1 0 0 1 3492.93 12533)">14.3%</text></g><g><text font-family="Varela Round,Varela Round_MSFontService,sans-serif" font-weight="400" font-size="32" transform="matrix(1 0 0 1 3596.38 12533)">(4,675 Km)</text></g><g><text font-family="Varela Round,Varela Round_MSFontService,sans-serif" font-weight="700" font-size="32" transform="matrix(1 0 0 1 3454.7 12650)">8.1%</text></g><g><text font-family="Varela Round,Varela Round_MSFontService,sans-serif" font-weight="400" font-size="32" transform="matrix(1 0 0 1 3537.95 12650)">(6 Aeródromo)</text></g><g><text font-family="Varela Round,Varela Round_MSFontService,sans-serif" font-weight="700" font-size="32" transform="matrix(1 0 0 1 3444.27 12768)">6.4%</text></g><g><text font-family="Varela Round,Varela Round_MSFontService,sans-serif" font-weight="400" font-size="32" transform="matrix(1 0 0 1 3527.53 12768)">(1,880 Km)</text></g><g><text font-family="Varela Round,Varela Round_MSFontService,sans-serif" font-weight="700" font-size="32" transform="matrix(1 0 0 1 3405.37 12885)">0.1% </text></g><g><text font-family="Varela Round,Varela Round_MSFontService,sans-serif" font-weight="400" font-size="32" transform="matrix(1 0 0 1 3488.62 12885)">(210 Km) </text></g><g><text font-family="Varela Round,Varela Round_MSFontService,sans-serif" font-weight="400" font-size="32" transform="matrix(1 0 0 1 2589.93 11434)">Porcentaje de centros poblados con al menos una</text></g><g><text font-family="Varela Round,Varela Round_MSFontService,sans-serif" font-weight="400" font-size="32" transform="matrix(1 0 0 1 2663.04 11473)">entidad pública sin acceso a internet fijo</text></g><g><text font-family="Varela Round,Varela Round_MSFontService,sans-serif" font-weight="400" font-size="32" transform="matrix(1 0 0 1 2548.91 11552)">Porcentaje de sistemas integrados de transporte por</text></g><g><text font-family="Varela Round,Varela Round_MSFontService,sans-serif" font-weight="400" font-size="32" transform="matrix(1 0 0 1 2851.78 11590)">implementar</text></g><g><text font-family="Varela Round,Varela Round_MSFontService,sans-serif" font-weight="400" font-size="32" transform="matrix(1 0 0 1 2608.38 11669)">Porcentaje de la red de caminos de herradura no</text></g><g><text font-family="Varela Round,Varela Round_MSFontService,sans-serif" font-weight="400" font-size="32" transform="matrix(1 0 0 1 2884.25 11708)">intervenidos</text></g><g><text font-family="Varela Round,Varela Round_MSFontService,sans-serif" font-weight="400" font-size="32" transform="matrix(1 0 0 1 2563.23 11786)">Porcentaje de sistemas integrados de transporte en</text></g><g><text font-family="Varela Round,Varela Round_MSFontService,sans-serif" font-weight="400" font-size="32" transform="matrix(1 0 0 1 2764.35 11825)">condiciones inadecuadas</text></g><g><text font-family="Varela Round,Varela Round_MSFontService,sans-serif" font-weight="400" font-size="32" transform="matrix(1 0 0 1 2704.9 11904)">Porcentaje de la red vial departamental en</text></g><g><text font-family="Varela Round,Varela Round_MSFontService,sans-serif" font-weight="400" font-size="32" transform="matrix(1 0 0 1 2835.18 11942)">condiciones inadecuadas</text></g><g><text font-family="Varela Round,Varela Round_MSFontService,sans-serif" font-weight="400" font-size="32" transform="matrix(1 0 0 1 2633.33 12021)">Porcentaje de la red vial vecinal en condiciones</text></g><g><text font-family="Varela Round,Varela Round_MSFontService,sans-serif" font-weight="400" font-size="32" transform="matrix(1 0 0 1 2894.61 12060)">inadecuadas</text></g><g><text font-family="Varela Round,Varela Round_MSFontService,sans-serif" font-weight="400" font-size="32" transform="matrix(1 0 0 1 2606.13 12139)">Prcentaje de centros poblados con al menos 100</text></g><g><text font-family="Varela Round,Varela Round_MSFontService,sans-serif" font-weight="400" font-size="32" transform="matrix(1 0 0 1 2652.28 12177)">habitantes sin cobertura de telefonía móvil</text></g><g><text font-family="Varela Round,Varela Round_MSFontService,sans-serif" font-weight="400" font-size="32" transform="matrix(1 0 0 1 2525.21 12256)">Porcentaje de aeródromos que operan en condiciones</text></g><g><text font-family="Varela Round,Varela Round_MSFontService,sans-serif" font-weight="400" font-size="32" transform="matrix(1 0 0 1 2847.67 12294)">subóptimas</text></g><g><text font-family="Varela Round,Varela Round_MSFontService,sans-serif" font-weight="400" font-size="32" transform="matrix(1 0 0 1 2611.4 12373)">Porcentaje de la red vial nacional en condiciones</text></g><g><text font-family="Varela Round,Varela Round_MSFontService,sans-serif" font-weight="400" font-size="32" transform="matrix(1 0 0 1 2883.64 12412)">inadecuadas</text></g><g><text font-family="Varela Round,Varela Round_MSFontService,sans-serif" font-weight="400" font-size="32" transform="matrix(1 0 0 1 2690.58 12491)">Porcentaje de la red vial departamental por</text></g><g><text font-family="Varela Round,Varela Round_MSFontService,sans-serif" font-weight="400" font-size="32" transform="matrix(1 0 0 1 2922.61 12529)">implementar</text></g><g><text font-family="Varela Round,Varela Round_MSFontService,sans-serif" font-weight="400" font-size="32" transform="matrix(1 0 0 1 2681.78 12627)">Porcentaje de aeródromos por implementar</text></g><g><text font-family="Varela Round,Varela Round_MSFontService,sans-serif" font-weight="400" font-size="32" transform="matrix(1 0 0 1 2585.6 12745)">Porcentaje de la red vial nacional por implementar</text></g><g><text font-family="Varela Round,Varela Round_MSFontService,sans-serif" font-weight="400" font-size="32" transform="matrix(1 0 0 1 2607.53 12862)">Porcentaje de la red vial vecinal por implementar</text></g><g><rect x="2948" y="12986" width="20" height="20" fill="#ED3237"/></g><g><text fill="#595959" font-family="Varela Round,Varela Round_MSFontService,sans-serif" font-weight="400" font-size="37" transform="matrix(1 0 0 1 2976.59 13006)">Brecha Programada % 2023</text></g><g><rect x="3534" y="12986" width="20" height="20" fill="#F69294"/></g><g><text fill="#595959" font-family="Varela Round,Varela Round_MSFontService,sans-serif" font-weight="400" font-size="37" transform="matrix(1 0 0 1 3561.93 13006)">Brecha % 2023</text></g><g><path d="M4521.15 11416.4 4522.15 11416.4 4522.15 11442.4 4521.15 11442.4ZM4291.14 11650.4 4521.15 11650.4 4521.15 11677.4 4291.14 11677.4ZM4521.15 12002.4 4522.15 12002.4 4522.15 12028.4 4521.15 12028.4ZM4521.15 12471.4 4522.15 12471.4 4522.15 12497.4 4521.15 12497.4ZM4521.15 12822.4 4522.15 12822.4 4522.15 12849.4 4521.15 12849.4Z" fill="#767171"/></g><g><path d="M4520.5 11370.5 4520.5 12894.5" stroke="#D9D9D9" stroke-width="3.4375" stroke-linejoin="round" stroke-miterlimit="10" fill="none" fill-rule="evenodd"/></g><g><text fill="#404040" font-family="Varela Round,Varela Round_MSFontService,sans-serif" font-weight="700" font-size="32" transform="matrix(1 0 0 1 4543.99 11439)">0.1%</text></g><g><text fill="#404040" font-family="Varela Round,Varela Round_MSFontService,sans-serif" font-weight="700" font-size="32" transform="matrix(1 0 0 1 4448.92 11548)">0%</text></g><g><text fill="#404040" font-family="Varela Round,Varela Round_MSFontService,sans-serif" font-weight="700" font-size="32" transform="matrix(1 0 0 1 4158.34 11674)">-</text></g><g><text fill="#404040" font-family="Varela Round,Varela Round_MSFontService,sans-serif" font-weight="700" font-size="32" transform="matrix(1 0 0 1 4171.47 11674)">66.1%</text></g><g><text fill="#404040" font-family="Varela Round,Varela Round_MSFontService,sans-serif" font-weight="700" font-size="32" transform="matrix(1 0 0 1 4448.92 11791)">0%</text></g><g><text fill="#404040" font-family="Varela Round,Varela Round_MSFontService,sans-serif" font-weight="700" font-size="32" transform="matrix(1 0 0 1 4453.44 11908)">0%</text></g><g><text fill="#404040" font-family="Varela Round,Varela Round_MSFontService,sans-serif" font-weight="700" font-size="32" transform="matrix(1 0 0 1 4453.51 12030)">0%</text></g><g><text fill="#404040" font-family="Varela Round,Varela Round_MSFontService,sans-serif" font-weight="700" font-size="32" transform="matrix(1 0 0 1 4453.44 12134)">0%</text></g><g><text fill="#404040" font-family="Varela Round,Varela Round_MSFontService,sans-serif" font-weight="700" font-size="32" transform="matrix(1 0 0 1 4453.44 12260)">0%</text></g><g><text fill="#404040" font-family="Varela Round,Varela Round_MSFontService,sans-serif" font-weight="700" font-size="32" transform="matrix(1 0 0 1 4453.44 12381)">0%</text></g><g><text fill="#404040" font-family="Varela Round,Varela Round_MSFontService,sans-serif" font-weight="700" font-size="32" transform="matrix(1 0 0 1 4458.22 12494)">0%</text></g><g><text fill="#404040" font-family="Varela Round,Varela Round_MSFontService,sans-serif" font-weight="700" font-size="32" transform="matrix(1 0 0 1 4462.73 12616)">0%</text></g><g><text fill="#404040" font-family="Varela Round,Varela Round_MSFontService,sans-serif" font-weight="700" font-size="32" transform="matrix(1 0 0 1 4467.24 12728)">0%</text></g><g><text fill="#404040" font-family="Varela Round,Varela Round_MSFontService,sans-serif" font-weight="700" font-size="32" transform="matrix(1 0 0 1 4467.24 12846)">0%</text></g><g><rect x="4451" y="12963" width="20.0005" height="19" fill="#767171"/></g><g><text fill="#595959" font-family="Varela Round,Varela Round_MSFontService,sans-serif" font-weight="400" font-size="37" transform="matrix(1 0 0 1 4479.18 12982)">Dif</text></g></g></svg>