<svg width="2002" height="1621" xmlns="http://www.w3.org/2000/svg" xmlns:xlink="http://www.w3.org/1999/xlink" xml:space="preserve" overflow="hidden"><defs><clipPath id="clip0"><rect x="2508" y="13702" width="2002" height="1621"/></clipPath><clipPath id="clip1"><rect x="3307" y="13769" width="720" height="1403"/></clipPath><clipPath id="clip2"><rect x="3307" y="13769" width="720" height="1403"/></clipPath></defs><g clip-path="url(#clip0)" transform="translate(-2508 -13702)"><g clip-path="url(#clip1)"><path d="M3752.12 13793.5 3307 13793.5 3307 13856.5 3752.12 13856.5ZM3584.12 13968.5 3307 13968.5 3307 14031.5 3584.12 14031.5ZM3494.11 14142.5 3307 14142.5 3307 14206.5 3494.11 14206.5ZM3454.11 14317.5 3307 14317.5 3307 14381.5 3454.11 14381.5ZM3385.11 14667.5 3307 14667.5 3307 14731.5 3385.11 14731.5ZM3394.11 14842.5 3307 14842.5 3307 14906.5 3394.11 14906.5ZM3344.11 15017.5 3307 15017.5 3307 15081.5 3344.11 15081.5Z" fill="#0093F8"/></g><g clip-path="url(#clip2)"><path d="M3786.12 13856.5 3307 13856.5 3307 13920.5 3786.12 13920.5ZM3587.12 14031.5 3307 14031.5 3307 14095.5 3587.12 14095.5ZM3495.11 14206.5 3307 14206.5 3307 14270.5 3495.11 14270.5ZM3486.11 14381.5 3307 14381.5 3307 14445.5 3486.11 14445.5ZM3483.11 14556.5 3307 14556.5 3307 14620.5 3483.11 14620.5ZM3425.11 14731.5 3307 14731.5 3307 14795.5 3425.11 14795.5ZM3402.11 14906.5 3307 14906.5 3307 14969.5 3402.11 14969.5ZM3361.11 15081.5 3307 15081.5 3307 15144.5 3361.11 15144.5Z" fill="#6DC4FF"/></g><g><path d="M3307.5 13769.5 3307.5 15168.5" stroke="#D9D9D9" stroke-width="3.4375" stroke-linejoin="round" stroke-miterlimit="10" fill="none" fill-rule="evenodd"/></g><g><path d="M3751.5 13824.5 3752.62 13803.5 3773.5 13803.5" stroke="#A6A6A6" stroke-width="3.4375" stroke-linejoin="round" stroke-miterlimit="10" fill="none"/></g><g><text font-family="Varela Round,Varela Round_MSFontService,sans-serif" font-weight="700" font-size="32" transform="matrix(1 0 0 1 3939.5 13794)">62.0%</text></g><g><g><text font-family="Varela Round,Varela Round_MSFontService,sans-serif" font-weight="400" font-size="32" transform="matrix(1 0 0 1 3824.07 13833)">(4,131,616 Personas)</text></g></g><g><g><text font-family="Varela Round,Varela Round_MSFontService,sans-serif" font-weight="700" font-size="32" transform="matrix(1 0 0 1 3588.22 14005)">38.6%</text></g></g><g><g><text font-family="Varela Round,Varela Round_MSFontService,sans-serif" font-weight="400" font-size="32" transform="matrix(1 0 0 1 3691.66 14005)">(80,751,790 M2)</text></g></g><g><g><text font-family="Varela Round,Varela Round_MSFontService,sans-serif" font-weight="700" font-size="32" transform="matrix(1 0 0 1 3528.42 14182)">26.1%</text></g></g><g><g><text font-family="Varela Round,Varela Round_MSFontService,sans-serif" font-weight="400" font-size="32" transform="matrix(1 0 0 1 3631.86 14182)">(327,329,155 M3) </text></g></g><g><g><text font-family="Varela Round,Varela Round_MSFontService,sans-serif" font-weight="700" font-size="32" transform="matrix(1 0 0 1 3491.91 14359)">20.5%</text></g></g><g><g><text font-family="Varela Round,Varela Round_MSFontService,sans-serif" font-weight="400" font-size="32" transform="matrix(1 0 0 1 3595.36 14359)">(53,720,238 M2)</text></g></g><g><text font-family="Varela Round,Varela Round_MSFontService,sans-serif" font-weight="700" font-size="32" transform="matrix(1 0 0 1 3334.59 14534)">0%</text></g><g><text font-family="Varela Round,Varela Round_MSFontService,sans-serif" font-weight="400" font-size="32" transform="matrix(1 0 0 1 3389.3 14534)">(0 Personas)</text></g><g><g><text font-family="Varela Round,Varela Round_MSFontService,sans-serif" font-weight="700" font-size="32" transform="matrix(1 0 0 1 3421.6 14709)">10.8% </text></g></g><g><g><text font-family="Varela Round,Varela Round_MSFontService,sans-serif" font-weight="400" font-size="32" transform="matrix(1 0 0 1 3525.05 14709)">(721,133 Personas)</text></g></g><g><text font-family="Varela Round,Varela Round_MSFontService,sans-serif" font-weight="700" font-size="32" transform="matrix(1 0 0 1 3435.95 14884)">12.1%</text></g><g><text font-family="Varela Round,Varela Round_MSFontService,sans-serif" font-weight="400" font-size="32" transform="matrix(1 0 0 1 3539.39 14884)">(3,234,437 Personas)</text></g><g><g><text font-family="Varela Round,Varela Round_MSFontService,sans-serif" font-weight="700" font-size="32" transform="matrix(1 0 0 1 3384.69 15067)">5.1%</text></g></g><g><g><text font-family="Varela Round,Varela Round_MSFontService,sans-serif" font-weight="400" font-size="32" transform="matrix(1 0 0 1 3467.92 15067)">(1,365,609 Personas)</text></g></g><g><text font-family="Varela Round,Varela Round_MSFontService,sans-serif" font-weight="700" font-size="32" transform="matrix(1 0 0 1 3947.45 13877)">66.8%</text></g><g><text font-family="Varela Round,Varela Round_MSFontService,sans-serif" font-weight="400" font-size="32" transform="matrix(1 0 0 1 3832.02 13916)">(4,447,285 Personas)</text></g><g><g><text font-family="Varela Round,Varela Round_MSFontService,sans-serif" font-weight="700" font-size="32" transform="matrix(1 0 0 1 3599.72 14073)">39.0% </text></g></g><g><g><text font-family="Varela Round,Varela Round_MSFontService,sans-serif" font-weight="400" font-size="32" transform="matrix(1 0 0 1 3703.17 14073)">(81,692,441 M2) </text></g></g><g><text font-family="Varela Round,Varela Round_MSFontService,sans-serif" font-weight="700" font-size="32" transform="matrix(1 0 0 1 3528.27 14248)">26.2% </text></g><g><text font-family="Varela Round,Varela Round_MSFontService,sans-serif" font-weight="400" font-size="32" transform="matrix(1 0 0 1 3631.71 14248)">(327,908,3343 M3)  </text></g><g><g><text font-family="Varela Round,Varela Round_MSFontService,sans-serif" font-weight="700" font-size="32" transform="matrix(1 0 0 1 3523.1 14423)">25.0%</text></g></g><g><g><text font-family="Varela Round,Varela Round_MSFontService,sans-serif" font-weight="400" font-size="32" transform="matrix(1 0 0 1 3626.54 14423)">(65,313,181M2)</text></g></g><g><g><text font-family="Varela Round,Varela Round_MSFontService,sans-serif" font-weight="700" font-size="32" transform="matrix(1 0 0 1 3512.78 14598)">24.5%</text></g></g><g><g><text font-family="Varela Round,Varela Round_MSFontService,sans-serif" font-weight="400" font-size="32" transform="matrix(1 0 0 1 3616.23 14598)">(6,420,081 Personas)</text></g></g><g><g><text font-family="Varela Round,Varela Round_MSFontService,sans-serif" font-weight="700" font-size="32" transform="matrix(1 0 0 1 3460.89 14773)">16.4%</text></g></g><g><g><text font-family="Varela Round,Varela Round_MSFontService,sans-serif" font-weight="400" font-size="32" transform="matrix(1 0 0 1 3564.33 14773)">(1,092,164 Personas)</text></g></g><g><g><text font-family="Varela Round,Varela Round_MSFontService,sans-serif" font-weight="700" font-size="32" transform="matrix(1 0 0 1 3508.87 14948)">13.3%</text></g></g><g><g><text font-family="Varela Round,Varela Round_MSFontService,sans-serif" font-weight="400" font-size="32" transform="matrix(1 0 0 1 3612.32 14948)">(3,551,256 </text></g></g><g><g><text font-family="Varela Round,Varela Round_MSFontService,sans-serif" font-weight="400" font-size="32" transform="matrix(1 0 0 1 3779.63 14948)">…</text></g></g><g><g><text font-family="Varela Round,Varela Round_MSFontService,sans-serif" font-weight="700" font-size="32" transform="matrix(1 0 0 1 3399.22 15132)">7.5%</text></g></g><g><g><text font-family="Varela Round,Varela Round_MSFontService,sans-serif" font-weight="400" font-size="32" transform="matrix(1 0 0 1 3482.48 15132)">(1,990,601 Personas)</text></g></g><g><text font-family="Varela Round,Varela Round_MSFontService,sans-serif" font-weight="400" font-size="32" transform="matrix(1 0 0 1 2595.85 13826)">Porcentaje de la población rural sin acceso al</text></g><g><text font-family="Varela Round,Varela Round_MSFontService,sans-serif" font-weight="400" font-size="32" transform="matrix(1 0 0 1 2611.27 13865)">servicio de alcantarillado u otras formas de</text></g><g><text font-family="Varela Round,Varela Round_MSFontService,sans-serif" font-weight="400" font-size="32" transform="matrix(1 0 0 1 2690.59 13903)">disposición sanitaria de excretas</text></g><g><text font-family="Varela Round,Varela Round_MSFontService,sans-serif" font-weight="400" font-size="32" transform="matrix(1 0 0 1 2529.71 14020)">Porcentaje de m2 de espacios públicos verdes en</text></g><g><text font-family="Varela Round,Varela Round_MSFontService,sans-serif" font-weight="400" font-size="32" transform="matrix(1 0 0 1 2662.77 14059)">zonas urbanas por implementar</text></g><g><text font-family="Varela Round,Varela Round_MSFontService,sans-serif" font-weight="400" font-size="32" transform="matrix(1 0 0 1 2571.7 14195)">Porcentaje de volumen de aguas residuales no</text></g><g><text font-family="Varela Round,Varela Round_MSFontService,sans-serif" font-weight="400" font-size="32" transform="matrix(1 0 0 1 2861.56 14234)">tratadas</text></g><g><text font-family="Varela Round,Varela Round_MSFontService,sans-serif" font-weight="400" font-size="32" transform="matrix(1 0 0 1 2553.54 14351)">Porcentaje de m2 de espacios públicos para el</text></g><g><text font-family="Varela Round,Varela Round_MSFontService,sans-serif" font-weight="400" font-size="32" transform="matrix(1 0 0 1 2533.17 14390)">esparcimiento y recreación en zonas urbanas por</text></g><g><text font-family="Varela Round,Varela Round_MSFontService,sans-serif" font-weight="400" font-size="32" transform="matrix(1 0 0 1 2808.79 14428)">implementar</text></g><g><text font-family="Varela Round,Varela Round_MSFontService,sans-serif" font-weight="400" font-size="32" transform="matrix(1 0 0 1 2515.07 14526)">Porcentaje de la población urbana sin acceso a los</text></g><g><text font-family="Varela Round,Varela Round_MSFontService,sans-serif" font-weight="400" font-size="32" transform="matrix(1 0 0 1 2550.65 14565)">servicios de movilidad urbana a través de vías</text></g><g><text font-family="Varela Round,Varela Round_MSFontService,sans-serif" font-weight="400" font-size="32" transform="matrix(1 0 0 1 2834.98 14603)">urbanas</text></g><g><text font-family="Varela Round,Varela Round_MSFontService,sans-serif" font-weight="400" font-size="32" transform="matrix(1 0 0 1 2572.1 14701)">Porcentaje de la población rural sin acceso al</text></g><g><text font-family="Varela Round,Varela Round_MSFontService,sans-serif" font-weight="400" font-size="32" transform="matrix(1 0 0 1 2548.34 14739)">servicio de agua potable mediante red pública o</text></g><g><text font-family="Varela Round,Varela Round_MSFontService,sans-serif" font-weight="400" font-size="32" transform="matrix(1 0 0 1 2811.07 14778)">pileta pública</text></g><g><text font-family="Varela Round,Varela Round_MSFontService,sans-serif" font-weight="400" font-size="32" transform="matrix(1 0 0 1 2566.31 14876)">Porcentaje de la población urbana sin acceso a</text></g><g><text font-family="Varela Round,Varela Round_MSFontService,sans-serif" font-weight="400" font-size="32" transform="matrix(1 0 0 1 2588.8 14914)">servicios de alcantarillado u otras formas de</text></g><g><text font-family="Varela Round,Varela Round_MSFontService,sans-serif" font-weight="400" font-size="32" transform="matrix(1 0 0 1 2675.82 14953)">disposición sanitaria de excretas</text></g><g><text font-family="Varela Round,Varela Round_MSFontService,sans-serif" font-weight="400" font-size="32" transform="matrix(1 0 0 1 2553.33 15051)">Porcentaje de la población urbana sin acceso al</text></g><g><text font-family="Varela Round,Varela Round_MSFontService,sans-serif" font-weight="400" font-size="32" transform="matrix(1 0 0 1 2548.34 15089)">servicio de agua potable mediante red pública o</text></g><g><text font-family="Varela Round,Varela Round_MSFontService,sans-serif" font-weight="400" font-size="32" transform="matrix(1 0 0 1 2811.07 15128)">pileta pública</text></g><g><rect x="2869" y="15242" width="23" height="22" fill="#0093F8"/></g><g><text fill="#595959" font-family="Varela Round,Varela Round_MSFontService,sans-serif" font-weight="400" font-size="41" transform="matrix(1 0 0 1 2900.98 15264)">Brecha Programada % 2023</text></g><g><rect x="3528" y="15242" width="22" height="22" fill="#6DC4FF"/></g><g><text fill="#595959" font-family="Varela Round,Varela Round_MSFontService,sans-serif" font-weight="400" font-size="41" transform="matrix(1 0 0 1 3559.37 15264)">Brecha % 2023</text></g><g><path d="M4452.15 13798.5 4479.15 13798.5 4479.15 13839.5 4452.15 13839.5ZM4476.15 13981.5 4479.15 13981.5 4479.15 14022.5 4476.15 14022.5ZM4478 14163.5 4479.15 14163.5 4479.15 14205.5 4478 14205.5ZM4454.15 14346.5 4479.15 14346.5 4479.15 14387.5 4454.15 14387.5ZM4340.14 14529.5 4479.15 14529.5 4479.15 14570.5 4340.14 14570.5ZM4447.15 14711.5 4479.15 14711.5 4479.15 14753.5 4447.15 14753.5ZM4472.15 14894.5 4479.15 14894.5 4479.15 14935.5 4472.15 14935.5ZM4465.15 15077.5 4479.15 15077.5 4479.15 15118.5 4465.15 15118.5Z" fill="#767171"/></g><g><path d="M4478.5 13727.5 4478.5 15189.5" stroke="#D9D9D9" stroke-width="3.4375" stroke-linejoin="round" stroke-miterlimit="10" fill="none" fill-rule="evenodd"/></g><g><text fill="#404040" font-family="Varela Round,Varela Round_MSFontService,sans-serif" font-weight="700" font-size="32" transform="matrix(1 0 0 1 4332.04 13829)">-</text></g><g><text fill="#404040" font-family="Varela Round,Varela Round_MSFontService,sans-serif" font-weight="700" font-size="32" transform="matrix(1 0 0 1 4345.17 13829)">4.7%</text></g><g><text fill="#404040" font-family="Varela Round,Varela Round_MSFontService,sans-serif" font-weight="700" font-size="32" transform="matrix(1 0 0 1 4343.46 14012)">-</text></g><g><text fill="#404040" font-family="Varela Round,Varela Round_MSFontService,sans-serif" font-weight="700" font-size="32" transform="matrix(1 0 0 1 4356.59 14012)">0.4%</text></g><g><text fill="#404040" font-family="Varela Round,Varela Round_MSFontService,sans-serif" font-weight="700" font-size="32" transform="matrix(1 0 0 1 4392.55 14194)">0%</text></g><g><text fill="#404040" font-family="Varela Round,Varela Round_MSFontService,sans-serif" font-weight="700" font-size="32" transform="matrix(1 0 0 1 4334.65 14377)">-</text></g><g><text fill="#404040" font-family="Varela Round,Varela Round_MSFontService,sans-serif" font-weight="700" font-size="32" transform="matrix(1 0 0 1 4347.78 14377)">4.4%</text></g><g><text fill="#404040" font-family="Varela Round,Varela Round_MSFontService,sans-serif" font-weight="700" font-size="32" transform="matrix(1 0 0 1 4222.56 14560)">-</text></g><g><text fill="#404040" font-family="Varela Round,Varela Round_MSFontService,sans-serif" font-weight="700" font-size="32" transform="matrix(1 0 0 1 4235.69 14560)">24.5%</text></g><g><text fill="#404040" font-family="Varela Round,Varela Round_MSFontService,sans-serif" font-weight="700" font-size="32" transform="matrix(1 0 0 1 4325.02 14742)">-</text></g><g><text fill="#404040" font-family="Varela Round,Varela Round_MSFontService,sans-serif" font-weight="700" font-size="32" transform="matrix(1 0 0 1 4338.15 14742)">5.6%</text></g><g><text fill="#404040" font-family="Varela Round,Varela Round_MSFontService,sans-serif" font-weight="700" font-size="32" transform="matrix(1 0 0 1 4344.04 14925)">-</text></g><g><text fill="#404040" font-family="Varela Round,Varela Round_MSFontService,sans-serif" font-weight="700" font-size="32" transform="matrix(1 0 0 1 4357.17 14925)">1.2%</text></g><g><text fill="#404040" font-family="Varela Round,Varela Round_MSFontService,sans-serif" font-weight="700" font-size="32" transform="matrix(1 0 0 1 4336.52 15108)">-</text></g><g><text fill="#404040" font-family="Varela Round,Varela Round_MSFontService,sans-serif" font-weight="700" font-size="32" transform="matrix(1 0 0 1 4349.65 15108)">2.3%</text></g><g><rect x="4394" y="15238" width="20" height="20" fill="#767171"/></g><g><text fill="#595959" font-family="Varela Round,Varela Round_MSFontService,sans-serif" font-weight="400" font-size="37" transform="matrix(1 0 0 1 4422.1 15258)">Dif</text></g></g></svg>